<svg width="10" height="22" viewBox="0 0 10 22" fill="none" xmlns="http://www.w3.org/2000/svg">
<path fill-rule="evenodd" clip-rule="evenodd" d="M0.315822 11.2888H2.46225V20.8538C2.46225 21.0426 2.6036 21.1957 2.77807 21.1957H6.41737C6.59185 21.1957 6.7332 21.0426 6.7332 20.8538V11.3339H9.20069C9.36112 11.3339 9.49609 11.2036 9.51441 11.0311L9.88916 7.50968C9.89945 7.41281 9.87111 7.31577 9.81122 7.24312C9.75129 7.17034 9.66551 7.12869 9.57548 7.12869H6.73331V4.92137C6.73331 4.25594 7.06432 3.91855 7.71719 3.91855C7.81024 3.91855 9.57548 3.91855 9.57548 3.91855C9.74996 3.91855 9.89131 3.76546 9.89131 3.57664V0.344388C9.89131 0.155531 9.74996 0.00252526 9.57548 0.00252526H7.01448C6.9964 0.00157312 6.95628 0 6.89719 0C6.45279 0 4.90825 0.0944283 3.68814 1.30941C2.33627 2.65583 2.52421 4.2679 2.56911 4.54742V7.12865H0.315822C0.141351 7.12865 0 7.28166 0 7.47052V10.9469C0 11.1357 0.141351 11.2888 0.315822 11.2888Z" fill="white"/>
</svg>
