<svg width="124" height="124" viewBox="0 0 124 124" fill="none" xmlns="http://www.w3.org/2000/svg">
<path d="M64.5937 121.406C97.4029 119.974 122.839 92.2155 121.406 59.4063C119.974 26.5971 92.2154 1.16129 59.4063 2.59377C26.5971 4.02625 1.16125 31.7846 2.59373 64.5938C4.02621 97.4029 31.7846 122.839 64.5937 121.406Z" stroke="white" stroke-linecap="round" stroke-linejoin="round"/>
<path d="M50.0582 117.004C53.2475 117.701 56.4915 118.118 59.7533 118.252" stroke="white" stroke-linecap="round" stroke-linejoin="round"/>
<path d="M42.766 114.9C44.3777 115.49 46.0157 116.004 47.6799 116.443" stroke="white" stroke-linecap="round" stroke-linejoin="round"/>
<path d="M7.85291 46.5942C4.06772 59.9226 5.32859 74.1785 11.3944 86.6355C17.4602 99.0926 27.9051 108.876 40.7317 114.116" stroke="white" stroke-linecap="round" stroke-linejoin="round"/>
<path d="M15.4202 30.4019C13.3872 33.3995 11.6463 36.5852 10.2213 39.9151" stroke="white" stroke-linecap="round" stroke-linejoin="round"/>
<path d="M53.9402 35.5854L60.0039 36.8434L62.0726 38.9859L64.7654 39.3986L65.6205 41.9538L64.9915 43.6835L63.1586 44.5287L58.6575 43.7916L58.5346 43.2413L60.6624 41.7573L59.1931 39.0448L55.1637 38.4945L53.0213 36.6567L53.9402 35.5854Z" stroke="white" stroke-linecap="round" stroke-linejoin="round"/>
<path d="M103.246 91.5783L98.4354 90.7626L92.6321 90.0255L88.3619 90.9739L84.1802 91.0329L79.9887 92.9984L77.5318 93.6864L76.0183 94.0205L73.4925 96.3153L71.011 98.0155L66.7704 96.502L66.8785 92.4284L64.3183 91.9862L61.5666 92.5955L60.8786 91.4456L60.6034 88.9052L59.3307 87.7406L57.4635 88.4482L57.2178 89.9469L54.9083 90.6054L52.2892 88.5858L50.7265 85.4605L51.9403 81.1461L55.9942 80.5319L57.3111 81.2543L58.9622 80.8857L60.7558 79.1855L62.6673 79.3378L66.107 83.0577L67.0406 82.7088L66.0578 79.5983L64.8638 78.1241L64.5591 75.4461L69.1634 72.1095L68.7212 66.8615L70.5295 64.5766L71.6155 61.014L72.9324 60.4292L75.6448 57.6627L75.5367 56.5276L73.3599 57.1566L72.7063 56.1443L71.1879 56.4834L68.9669 57.5546L69.6745 55.5154L74.1903 53.0584L75.0159 51.5842L77.6202 54.1837L79.1337 55.1665L80.942 54.1837L79.7135 52.5768L76.3623 51.1518L72.2297 48.1691L68.2642 46.5917L64.8245 46.7736L62.7999 45.4861L60.4757 45.4272L60.3234 46.0414L60.9327 50.0953L61.7926 51.3533L61.5322 56.0362L58.2841 54.4441V52.4196L55.0606 51.6973L53.4832 50.459L53.4095 46.8571L56.7608 43.0783L56.3038 39.7123L54.8296 40.2037L53.5913 39.1767L52.7216 37.2111L51.7388 37.2849L51.6798 39.614L50.2057 40.2234L48.4465 35.5552L47.1886 35.1129L45.0756 34.7149L43.11 36.307L46.4515 38.3119L47.5227 40.528L41.7341 37.9138L37.464 34.9655L36.3633 31.3096L32.5354 31L30.1767 33.4029C29.5987 33.9574 28.9901 34.4791 28.3537 34.9655C27.3249 35.4714 26.2607 35.9017 25.1695 36.2529L25.14 38.7099L22 39.5502L22.6142 41.0243L27.8967 40.7197L31.1546 43.0341L32.2258 47.8546L31.6607 52.4638L32.9432 56.9453L30.5796 64.4734L31.9899 74.7139L34.5157 80.2223L37.2822 84.237L39.4099 84.0503L38.2305 82.0012L36.7564 80.5909L35.4002 77.7408L36.5795 77.1905L39.6114 81.726L41.97 85.8291L42.7611 89.4064L46.0829 91.996L51.5324 94.3989L59.1244 94.7379L61.7877 96.3153L63.9301 98.1531L66.7507 99.1359L69.9644 99.2882L72.9619 98.4774C72.9619 98.4774 73.1338 99.8877 73.2862 100.576C73.4385 101.264 72.0282 104.015 72.0282 104.015L71.1241 107.106L72.9029 109.897L76.2099 110.462L81.458 113.902L83.5709 114.3L84.0279 116.369L84.4849 117.278C94.8178 113.162 103.785 106.224 110.361 97.2539L110.209 96.2416L112.43 88.6644L110.361 87.8241L103.246 91.5783Z" stroke="white" stroke-linecap="round" stroke-linejoin="round"/>
<path d="M105.04 33.9262L102.941 31.6461L100.342 29.0467L98.8677 25.037L101.438 24.8994L101.271 23.4891L99.4476 23.7495L100.814 22.7274L102.248 21.3958L101.944 20.015L99.8014 18.1772L98.794 15.2878C88.6116 7.26793 76.0883 2.79347 63.1292 2.54511C50.17 2.29675 37.4845 6.28808 27.0022 13.9119L30.6778 15.4549L29.2872 18.3639L26.8302 19.4941L27.3806 23.2778L26.3389 23.9362L25.2971 25.7544L25.9851 28.2113L28.3879 27.9656L27.9457 30.5208L30.2896 30L33.1495 24.0149L33.0758 21.7201L36.8693 20.5899L37.4688 18.7226L41.3704 17.4204L41.2672 14.9635L44.1271 14.1822C44.1271 14.1822 45.9502 12.6196 46.3629 12.5262C47.198 12.5244 48.0322 12.5819 48.8592 12.6982L51.2915 13.8923L54.1858 13.2486L56.3283 11.1847L59.5567 10.7523C60.0786 10.9544 60.6414 11.0286 61.1979 10.9685C61.8859 10.8162 63.7384 9.39116 63.7384 9.39116L68.2837 10.9833L70.2149 11.8579L70.6719 13.9267L72.7996 13.7399L73.2124 12.3493L75.1779 12.7768L75.286 13.9119L71.3942 15.9315L74.4113 18.4425L79.9837 20.0936L82.6618 22.3933L85.7526 21.9953L86.1359 20.4621L87.1776 19.9413L82.9861 17.9757L80.7355 18.2361L82.4013 17.2534L80.2294 15.2878L82.5389 14.6294L85.9393 15.6121L87.3594 18.7619L89.2758 20.2361L91.4036 23.9559L94.9219 25.489L95.9342 30.0344L99.5606 31.4004L99.7572 32.9434V34.8303L101.138 37.1251L101.688 38.3044L104.121 38.1963L104.701 35.6116L105.04 33.9262Z" stroke="white" stroke-linecap="round" stroke-linejoin="round"/>
<path d="M103.747 19.6445L103.924 20.4357L103.728 22.7943L104.568 24.6223L106.204 24.8385L106.784 27.4527L104.981 27.1333L106.219 34.6663L105.236 38.0618L107.202 41.6784L109.359 42.9314L111.015 50.371L114.091 55.7763L116.995 59.7565L120.351 59.8794L120.843 56.877L121.216 56.4249C119.888 42.4986 113.708 29.4818 103.757 19.6494L103.747 19.6445Z" stroke="white" stroke-linecap="round" stroke-linejoin="round"/>
<path d="M71.7333 25.8528L61.7483 23.8774L57.7877 24.9044L57.4044 27.7348L55.3504 26.3098L52.4758 27.671L53.208 32.2802L56.0875 33.5234L57.2963 30.5063L59.822 32.1131L64.9177 34.8845L66.6327 38.6977L71.2222 42.447L76.7946 40.1964L76.2 38.1621L74.4408 36.0933L72.9372 30.6439L73.7971 27.9953L71.7333 25.8528Z" stroke="white" stroke-linecap="round" stroke-linejoin="round"/>
<path d="M79.8461 27.233L77.6545 27.1396L76.2 29.0561L78.0525 32.8348L79.8412 32.4368L79.8461 27.233Z" stroke="white" stroke-linecap="round" stroke-linejoin="round"/>
<path d="M93.2365 27.0065L88.0032 25.5667L86.6715 24.127L85.6593 24.7854L87.2366 27.3259L88.8582 30.7263L91.1087 31.0899L91.3987 30.4511L89.7034 28.6576L93.5903 29.2374L93.2365 27.0065Z" stroke="white" stroke-linecap="round" stroke-linejoin="round"/>
<path d="M64.053 85.6733L63.6255 86.3515L68.0332 86.6709L70.1167 88.2335L72.7948 87.9288L73.4237 86.1991L70.1314 86.3515L64.053 85.6733Z" stroke="white" stroke-linecap="round" stroke-linejoin="round"/>
<path d="M76.8978 85.5703L74.1853 87.0396L74.8438 88.0518L78.426 87.2558L78.8732 85.9978L77.6594 86.4106L76.8978 85.5703Z" stroke="white" stroke-linecap="round" stroke-linejoin="round"/>
</svg>
