<?xml version="1.0" encoding="UTF-8"?>
<svg xmlns="http://www.w3.org/2000/svg" xmlns:xlink="http://www.w3.org/1999/xlink" viewBox="0 0 24 24" width="24px" height="24px">
<g id="surface32336867">
<path style=" stroke:none;fill-rule:nonzero;fill:rgb(0.784314%,53.333336%,81.960785%);fill-opacity:1;" d="M 12 2 C 6.476562 2 2 6.476562 2 12 C 2 17.523438 6.476562 22 12 22 C 17.523438 22 22 17.523438 22 12 C 22 6.476562 17.523438 2 12 2 Z M 12 2 "/>
<path style=" stroke:none;fill-rule:nonzero;fill:rgb(100%,100%,100%);fill-opacity:1;" d="M 7 9.5 L 9 9.5 L 9 17 L 7 17 Z M 7.992188 8.5 L 7.984375 8.5 C 7.386719 8.5 7 8.054688 7 7.5 C 7 6.933594 7.398438 6.5 8.003906 6.5 C 8.613281 6.5 8.988281 6.933594 9 7.5 C 9 8.054688 8.613281 8.5 7.992188 8.5 Z M 17.5 12.25 C 17.5 10.730469 16.269531 9.5 14.75 9.5 C 13.820312 9.5 12.996094 9.964844 12.5 10.671875 L 12.5 9.5 L 10.5 9.5 L 10.5 17 L 12.5 17 L 12.5 13 C 12.5 12.171875 13.171875 11.5 14 11.5 C 14.828125 11.5 15.5 12.171875 15.5 13 L 15.5 17 L 17.5 17 C 17.5 17 17.5 12.460938 17.5 12.25 Z M 17.5 12.25 "/>
</g>
</svg>
