<?xml version="1.0" standalone="no"?>
<!DOCTYPE svg PUBLIC "-//W3C//DTD SVG 20010904//EN"
 "http://www.w3.org/TR/2001/REC-SVG-20010904/DTD/svg10.dtd">
<svg version="1.0" xmlns="http://www.w3.org/2000/svg"
 width="2867.000000pt" height="984.000000pt" viewBox="0 0 2867.000000 984.000000"
 preserveAspectRatio="xMidYMid meet">

<g transform="translate(0.000000,984.000000) scale(0.100000,-0.100000)"
fill="#000000" stroke="none">
<path d="M28292 8234 c-88 -44 -132 -120 -132 -229 0 -36 7 -82 15 -102 8 -19
15 -37 15 -39 0 -2 -22 -4 -50 -4 l-50 0 0 -65 0 -65 285 0 285 0 0 65 0 64
-142 3 -142 3 -33 43 c-63 83 -37 193 53 222 41 14 78 4 137 -37 l38 -26 39
38 c22 22 40 45 40 51 0 20 -77 80 -119 92 -21 7 -72 12 -113 12 -60 0 -84 -5
-126 -26z"/>
<path d="M24560 6908 c0 -449 -4 -706 -11 -730 -7 -27 -20 -43 -42 -55 -30
-17 -93 -18 -917 -18 -822 0 -888 1 -931 18 -25 9 -59 31 -75 48 l-29 30 -5
357 -5 357 -140 0 -140 0 -5 -350 c-4 -223 -10 -359 -17 -376 -6 -14 -26 -38
-44 -53 -31 -27 -37 -28 -120 -24 -70 2 -93 7 -116 24 -60 45 -63 57 -63 326
-1 211 -3 247 -16 252 -22 9 -247 7 -261 -2 -8 -5 -12 -83 -15 -262 -3 -282
-6 -293 -69 -325 -44 -23 -157 -21 -212 3 -73 32 -77 50 -77 329 0 173 -3 242
-12 251 -13 13 -245 17 -265 4 -9 -5 -13 -124 -15 -452 -3 -435 -4 -446 -26
-502 -26 -65 -80 -119 -150 -151 -38 -17 -66 -21 -152 -21 -92 0 -112 3 -161
25 -112 53 -178 155 -186 291 -7 110 14 203 73 328 28 60 44 104 38 109 -5 5
-60 30 -123 55 -115 46 -141 48 -141 10 0 -8 -4 -14 -9 -14 -12 0 -67 -127
-98 -228 -24 -78 -27 -103 -27 -247 -1 -132 2 -170 18 -215 61 -177 172 -287
351 -347 74 -25 93 -27 245 -28 128 0 180 4 230 18 164 44 282 137 346 270 36
76 63 194 64 276 l0 44 23 -20 c57 -53 81 -58 262 -58 167 0 171 1 228 29 35
17 67 41 80 61 l21 33 38 -43 c59 -67 109 -80 298 -80 146 0 158 1 211 26 31
15 66 40 78 58 l23 31 42 -43 c73 -76 18 -72 1121 -72 l980 0 57 28 c34 17 65
40 75 58 21 36 26 36 47 4 22 -33 74 -65 94 -57 10 3 13 1 8 -6 -4 -7 7 -14
31 -19 21 -4 369 -8 773 -8 664 0 739 2 772 17 35 15 38 15 77 -4 39 -19 56
-19 503 -16 401 4 471 7 523 22 161 46 226 141 247 363 25 265 -44 495 -180
599 -125 95 -251 128 -465 121 -78 -3 -162 -8 -187 -12 -55 -8 -216 -59 -289
-91 -29 -13 -57 -24 -62 -24 -5 0 -10 172 -11 383 l-3 382 -140 0 -140 0 -5
-690 c-5 -633 -7 -693 -23 -731 -32 -72 2 -69 -711 -69 -514 0 -649 3 -679 14
-54 19 -105 66 -112 104 -3 18 -7 334 -8 702 l-2 670 -142 3 -143 3 0 -693z
m155 612 c3 -5 -1 -10 -9 -10 -9 0 -16 5 -16 10 0 6 4 10 9 10 6 0 13 -4 16
-10z m1753 -208 c18 -18 18 -19 -10 -35 -15 -9 -28 -12 -28 -8 0 5 8 12 17 15
10 4 13 10 8 14 -11 8 -18 32 -10 32 3 0 13 -8 23 -18z m-1778 -442 c0 -5 -2
-10 -4 -10 -3 0 -8 5 -11 10 -3 6 -1 10 4 10 6 0 11 -4 11 -10z m2676 -185
c77 -23 131 -67 162 -133 25 -53 27 -66 27 -197 0 -123 -2 -144 -21 -175 -27
-47 -64 -63 -154 -68 -41 -3 -78 -9 -82 -16 -4 -6 -8 -6 -8 -1 0 7 -109 9
-312 7 l-313 -3 3 233 c2 128 7 236 10 239 13 13 188 78 264 99 153 42 315 48
424 15z m-588 -20 c-3 -3 -9 2 -12 12 -6 14 -5 15 5 6 7 -7 10 -15 7 -18z
m-4326 -17 c-7 -7 -12 -8 -12 -2 0 14 12 26 19 19 2 -3 -1 -11 -7 -17z m-725
-4 c-3 -3 -12 -4 -19 -1 -8 3 -5 6 6 6 11 1 17 -2 13 -5z m-717 -78 c0 -11
-19 -15 -25 -6 -3 5 1 10 9 10 9 0 16 -2 16 -4z m5630 -6 c0 -5 -2 -10 -4 -10
-3 0 -8 5 -11 10 -3 6 -1 10 4 10 6 0 11 -4 11 -10z m-5600 -16 c0 -8 -4 -12
-10 -9 -5 3 -10 10 -10 16 0 5 5 9 10 9 6 0 10 -7 10 -16z m15 -94 c3 -5 1
-10 -4 -10 -6 0 -11 5 -11 10 0 6 2 10 4 10 3 0 8 -4 11 -10z m3739 -66 c8
-22 8 -24 -7 -24 -7 0 -13 9 -14 20 -2 24 12 27 21 4z m-104 -8 c0 -2 -7 -6
-15 -10 -8 -3 -15 -1 -15 4 0 6 7 10 15 10 8 0 15 -2 15 -4z m26 -308 c-10
-40 -22 -50 -52 -45 l-29 4 32 8 c28 6 32 11 27 31 -7 28 4 50 18 36 6 -6 8
-21 4 -34z m-2436 8 c0 -3 -4 -8 -10 -11 -5 -3 -10 -1 -10 4 0 6 5 11 10 11 6
0 10 -2 10 -4z m2290 -107 c0 -6 -4 -7 -10 -4 -5 3 -10 11 -10 16 0 6 5 7 10
4 6 -3 10 -11 10 -16z m160 -19 c0 -5 -2 -10 -4 -10 -3 0 -8 5 -11 10 -3 6 -1
10 4 10 6 0 11 -4 11 -10z m2090 0 c0 -5 -2 -10 -4 -10 -3 0 -8 5 -11 10 -3 6
-1 10 4 10 6 0 11 -4 11 -10z m35 0 c3 -5 -1 -10 -9 -10 -9 0 -16 5 -16 10 0
6 4 10 9 10 6 0 13 -4 16 -10z m-2970 -48 c-11 -11 -27 17 -20 35 6 16 8 16
16 -6 5 -13 7 -26 4 -29z m445 23 c0 -8 -7 -15 -15 -15 -9 0 -12 6 -9 15 4 8
10 15 15 15 5 0 9 -7 9 -15z m-3290 -436 c0 -5 -4 -9 -10 -9 -5 0 -10 7 -10
16 0 8 5 12 10 9 6 -3 10 -10 10 -16z"/>
<path d="M28240 6725 l0 -875 140 0 c137 0 140 0 145 23 3 12 4 405 3 872 l-3
850 -142 3 -143 3 0 -876z m140 -65 c0 -5 -4 -10 -10 -10 -5 0 -10 5 -10 10 0
6 5 10 10 10 6 0 10 -4 10 -10z"/>
<path d="M15227 7443 c-4 -3 -7 -64 -7 -135 l0 -128 145 0 145 0 0 135 0 135
-138 0 c-76 0 -142 -3 -145 -7z"/>
<path d="M15203 6946 c-169 -43 -287 -156 -337 -325 -21 -71 -20 -81 5 -81 18
0 19 -2 9 -15 -7 -8 -19 -15 -27 -15 -25 0 -13 -267 15 -345 12 -32 22 -61 22
-62 0 -8 -1627 -1 -1702 7 -104 12 -206 43 -385 116 -73 30 -141 54 -152 54
-12 0 -23 -11 -31 -32 -46 -126 -69 -203 -63 -209 5 -4 93 -39 196 -77 262
-98 327 -144 327 -234 0 -46 -35 -89 -92 -114 -38 -16 -82 -18 -365 -22 -337
-4 -420 2 -516 38 -116 44 -184 139 -194 272 -7 96 15 186 73 306 25 52 43
100 40 108 -3 7 -56 39 -118 70 l-112 56 -23 -28 c-64 -80 -134 -277 -153
-427 -10 -85 -2 -203 21 -282 34 -123 137 -244 254 -300 141 -68 159 -70 660
-70 405 0 457 2 522 19 86 21 175 72 220 124 71 81 94 219 53 322 l-20 50
1053 0 c1101 0 1151 2 1252 44 190 80 287 305 255 594 -26 237 -128 384 -310
446 -71 24 -300 32 -377 12z m265 -258 c96 -34 152 -170 139 -341 -14 -172
-84 -242 -242 -242 -66 0 -88 5 -125 25 -84 47 -113 119 -113 275 0 109 15
165 59 222 57 75 171 100 282 61z m-2233 -707 c3 -5 1 -12 -5 -16 -5 -3 -10 1
-10 9 0 18 6 21 15 7z m2280 -31 c3 -5 1 -10 -4 -10 -6 0 -11 5 -11 10 0 6 2
10 4 10 3 0 8 -4 11 -10z m-2305 -137 c0 -5 -4 -14 -9 -22 -11 -17 -32 -5 -24
14 5 15 33 21 33 8z"/>
<path d="M18375 6945 c-27 -8 -51 -19 -53 -25 -2 -5 -14 -10 -26 -10 -43 0
-216 -136 -216 -170 0 -8 35 -51 79 -94 l79 -78 53 44 c84 68 148 92 244 90
131 -2 123 1 201 -65 71 -61 103 -154 106 -307 1 -122 -20 -177 -78 -206 -38
-18 -71 -19 -989 -19 l-950 0 -49 25 c-94 47 -90 32 -96 433 l-5 352 -140 0
-140 0 -5 -585 c-6 -634 -7 -635 -62 -690 -19 -19 -24 -30 -15 -33 6 -3 3 -5
-8 -6 -113 -7 -182 -15 -192 -23 -9 -7 -13 -43 -13 -112 0 -69 3 -96 10 -86 8
13 10 12 10 -2 0 -10 -4 -18 -10 -18 -5 0 -7 -7 -4 -15 5 -12 26 -15 103 -15
174 0 279 36 354 119 74 82 104 177 114 359 l6 123 21 -20 c12 -11 39 -28 61
-38 38 -17 102 -18 1033 -21 632 -2 991 1 988 7 -4 5 -2 12 4 16 5 3 10 -1 10
-10 0 -12 8 -14 43 -9 148 21 228 82 271 206 54 160 36 470 -35 611 -35 69
-60 99 -77 92 -12 -4 -12 -3 -3 9 26 32 -139 139 -264 171 -75 19 -289 19
-360 0z m5 -55 c0 -5 -2 -10 -4 -10 -3 0 -8 5 -11 10 -3 6 -1 10 4 10 6 0 11
-4 11 -10z m-44 -47 c-3 -4 -6 -1 -6 5 0 7 -7 12 -15 12 -16 0 -20 12 -8 23 3
4 13 -2 21 -14 8 -11 11 -23 8 -26z m591 -725 c-3 -8 -6 -5 -6 6 -1 11 2 17 5
13 3 -3 4 -12 1 -19z m-2627 -618 c0 -5 -2 -10 -4 -10 -3 0 -8 5 -11 10 -3 6
-1 10 4 10 6 0 11 -4 11 -10z"/>
<path d="M12214 5137 c-2 -7 -3 -67 -2 -133 l3 -119 130 0 130 0 0 130 0 130
-128 3 c-99 2 -129 0 -133 -11z"/>
<path d="M12550 5015 l0 -135 130 0 130 0 0 135 0 135 -130 0 -130 0 0 -135z"/>
<path d="M17968 4246 c-21 -8 -38 -11 -38 -8 0 3 -5 1 -12 -6 -7 -7 -21 -12
-33 -12 -39 0 -191 -102 -180 -120 3 -4 -6 -15 -19 -24 -13 -8 -37 -41 -52
-72 -54 -111 -43 -276 28 -386 66 -104 139 -147 383 -228 250 -83 320 -124
351 -211 27 -76 6 -156 -58 -215 -61 -58 -93 -69 -203 -69 -93 0 -105 2 -167
33 -99 48 -201 161 -270 297 l-53 105 -44 0 -44 0 6 -112 c4 -62 7 -175 7
-250 l0 -138 47 0 c39 0 53 5 78 30 l31 30 65 -26 c113 -47 198 -66 325 -71
146 -7 255 12 359 62 75 36 186 126 150 122 -34 -4 -28 18 6 23 27 4 37 14 63
65 29 57 31 66 31 175 0 104 -3 121 -27 172 -31 66 -94 133 -163 173 -26 16
-141 61 -255 100 -227 78 -285 107 -327 162 -25 32 -28 45 -28 108 0 60 4 77
25 107 53 79 156 117 264 97 123 -22 214 -105 294 -271 27 -57 52 -111 55
-120 5 -14 17 -18 52 -18 41 0 45 2 45 24 0 14 -4 28 -10 31 -5 3 -10 -1 -10
-10 0 -9 -4 -13 -10 -10 -15 10 -12 35 5 35 13 0 15 29 15 205 l0 205 -42 0
c-33 0 -49 -6 -73 -30 l-31 -30 -60 26 c-104 46 -196 64 -323 64 -70 -1 -131
-6 -153 -14z m-164 -227 c-3 -5 -10 -7 -15 -3 -5 3 -7 10 -3 15 3 5 10 7 15 3
5 -3 7 -10 3 -15z m776 -9 c0 -5 -5 -10 -11 -10 -5 0 -7 5 -4 10 3 6 8 10 11
10 2 0 4 -4 4 -10z m-695 -9 c3 -5 1 -12 -5 -16 -5 -3 -10 1 -10 9 0 18 6 21
15 7z m-150 -31 c3 -5 -3 -10 -15 -10 -12 0 -18 5 -15 10 3 6 10 10 15 10 5 0
12 -4 15 -10z m830 -100 c3 -5 1 -10 -4 -10 -6 0 -11 5 -11 10 0 6 2 10 4 10
3 0 8 -4 11 -10z m-740 -270 c3 -5 1 -10 -4 -10 -6 0 -11 5 -11 10 0 6 2 10 4
10 3 0 8 -4 11 -10z m515 -79 c0 -5 -7 -11 -14 -14 -10 -4 -13 -1 -9 9 6 15
23 19 23 5z m-10 -41 c0 -5 -5 -10 -11 -10 -5 0 -7 5 -4 10 3 6 8 10 11 10 2
0 4 -4 4 -10z m340 -89 c0 -6 -4 -13 -10 -16 -5 -3 -10 1 -10 9 0 9 5 16 10
16 6 0 10 -4 10 -9z m-1039 -94 c-13 -13 -26 -3 -16 12 3 6 11 8 17 5 6 -4 6
-10 -1 -17z m849 -52 c-7 -9 -15 -13 -17 -11 -7 7 7 26 19 26 6 0 6 -6 -2 -15z
m-35 -105 c0 -7 -6 -15 -12 -17 -8 -3 -13 4 -13 17 0 13 5 20 13 18 6 -3 12
-11 12 -18z"/>
<path d="M12342 4226 c-73 -161 -411 -998 -406 -1009 3 -8 -1 -17 -9 -20 -8
-3 -29 -43 -48 -89 -53 -132 -102 -173 -241 -203 -24 -5 -28 -10 -28 -40 l0
-35 291 0 290 0 -3 37 -3 37 -71 12 c-153 25 -160 52 -72 282 l39 102 239 0
238 0 30 -72 c117 -282 114 -271 83 -288 -11 -5 -55 -16 -98 -23 l-78 -13 -3
-37 -3 -37 386 0 386 0 -3 37 c-3 36 -4 37 -58 48 -58 11 -106 39 -138 79 -10
13 -85 191 -167 395 -116 288 -153 371 -167 371 -24 0 -34 21 -16 34 14 10 4
40 -74 234 l-91 222 -97 0 c-92 0 -97 -1 -108 -24z m248 -296 c0 -5 -5 -10
-11 -10 -5 0 -7 5 -4 10 3 6 8 10 11 10 2 0 4 -4 4 -10z m-235 -125 c16 -38
33 -73 39 -77 6 -4 8 -10 4 -13 -3 -4 22 -76 56 -161 35 -84 61 -156 58 -159
-7 -7 -377 -7 -384 0 -3 3 38 115 91 250 53 134 99 241 102 237 3 -4 18 -38
34 -77z m36 42 c-13 -13 -26 -3 -16 12 3 6 11 8 17 5 6 -4 6 -10 -1 -17z m184
-307 c3 -5 1 -10 -4 -10 -6 0 -11 5 -11 10 0 6 2 10 4 10 3 0 8 -4 11 -10z
m180 -40 c-3 -5 -11 -10 -16 -10 -6 0 -7 5 -4 10 3 6 11 10 16 10 6 0 7 -4 4
-10z m-105 -60 c0 -5 -4 -10 -10 -10 -5 0 -10 5 -10 10 0 6 5 10 10 10 6 0 10
-4 10 -10z m-26 -165 c3 -8 1 -15 -4 -15 -6 0 -10 7 -10 15 0 8 2 15 4 15 2 0
6 -7 10 -15z m166 -69 c0 -3 -4 -8 -10 -11 -5 -3 -10 -1 -10 4 0 6 5 11 10 11
6 0 10 -2 10 -4z"/>
<path d="M16633 4213 c-8 -21 -119 -288 -245 -593 -126 -305 -241 -574 -254
-598 -30 -50 -101 -100 -156 -109 -36 -5 -38 -7 -38 -44 l0 -39 276 0 275 0
-3 38 c-3 37 -4 37 -54 43 -69 9 -118 26 -139 49 -24 27 -17 68 36 215 l44
120 236 3 c182 2 239 -1 246 -10 6 -7 39 -84 74 -171 74 -184 76 -177 -44
-197 -99 -17 -97 -15 -97 -55 l0 -35 381 0 380 0 -3 37 c-3 36 -5 38 -45 45
-84 14 -137 58 -176 148 -26 58 -172 418 -227 558 -25 62 -37 82 -51 82 -16 0
-17 3 -8 18 9 15 -7 64 -92 275 l-104 257 -98 0 -98 0 -16 -37z m264 -299 c-3
-3 -12 -4 -19 -1 -8 3 -5 6 6 6 11 1 17 -2 13 -5z m-178 -277 c50 -125 91
-232 91 -237 0 -6 -73 -10 -195 -10 -107 0 -195 2 -195 5 0 2 39 102 86 222
47 120 90 231 96 247 14 36 7 49 117 -227z m329 -29 c-2 -6 -10 -14 -16 -16
-7 -2 -10 2 -6 12 7 18 28 22 22 4z m76 -259 c-3 -5 -10 -7 -15 -3 -5 3 -7 10
-3 15 3 5 10 7 15 3 5 -3 7 -10 3 -15z m-94 -19 c0 -5 -5 -10 -11 -10 -5 0 -7
5 -4 10 3 6 8 10 11 10 2 0 4 -4 4 -10z m-4 -307 c-10 -10 -19 5 -10 18 6 11
8 11 12 0 2 -7 1 -15 -2 -18z m324 -137 c0 -3 -4 -8 -10 -11 -5 -3 -10 -1 -10
4 0 6 5 11 10 11 6 0 10 -2 10 -4z"/>
<path d="M24805 3988 c-59 -145 -155 -378 -213 -518 -57 -140 -108 -264 -113
-275 -81 -189 -121 -244 -194 -269 -37 -13 -37 -13 -11 -20 22 -5 26 -12 26
-40 l0 -34 226 -1 225 -2 -3 38 -3 37 -65 11 c-69 12 -124 36 -133 58 -6 16 7
89 22 130 6 16 8 33 5 39 -3 5 1 15 9 21 7 7 24 40 37 75 l23 62 240 -2 240
-3 64 -154 c34 -85 63 -162 63 -172 0 -25 -31 -39 -114 -53 l-71 -12 -3 -37
-3 -37 381 0 381 0 -3 37 c-3 36 -5 38 -45 45 -54 9 -116 41 -141 73 -25 32
-56 105 -310 740 l-209 520 -99 3 -100 3 -109 -263z m270 -577 c6 -21 6 -21
-189 -21 -145 0 -196 3 -196 12 0 11 175 461 187 482 5 7 174 -400 198 -473z
m25 79 c0 -5 -2 -10 -4 -10 -3 0 -8 5 -11 10 -3 6 -1 10 4 10 6 0 11 -4 11
-10z m140 -30 c0 -5 -2 -10 -4 -10 -3 0 -8 5 -11 10 -3 6 -1 10 4 10 6 0 11
-4 11 -10z m-543 -102 c-3 -8 -6 -5 -6 6 -1 11 2 17 5 13 3 -3 4 -12 1 -19z
m753 -63 c0 -8 -7 -15 -16 -15 -14 0 -14 3 -4 15 7 8 14 15 16 15 2 0 4 -7 4
-15z m-10 -125 c0 -5 -2 -10 -4 -10 -3 0 -8 5 -11 10 -3 6 -1 10 4 10 6 0 11
-4 11 -10z m0 -130 c0 -5 -2 -10 -4 -10 -3 0 -8 5 -11 10 -3 6 -1 10 4 10 6 0
11 -4 11 -10z m-10 -156 c0 -8 -4 -12 -10 -9 -5 3 -10 10 -10 16 0 5 5 9 10 9
6 0 10 -7 10 -16z m300 6 c0 -5 -5 -10 -11 -10 -5 0 -7 5 -4 10 3 6 8 10 11
10 2 0 4 -4 4 -10z"/>
<path d="M13217 4223 c-4 -3 -7 -93 -7 -200 l0 -193 39 0 c40 0 40 0 81 82 51
102 111 183 151 203 20 11 62 17 132 18 l102 2 0 -578 0 -579 -32 -28 c-24
-22 -46 -30 -90 -35 -32 -3 -65 -7 -73 -8 -10 -1 -16 -16 -18 -40 l-3 -37 390
0 391 0 0 40 c0 37 -2 40 -27 40 -55 0 -138 29 -160 55 l-23 26 0 576 0 576
101 -7 c57 -3 113 -13 130 -21 41 -22 102 -102 151 -201 41 -84 41 -84 80 -84
l38 0 0 200 0 200 -673 0 c-371 0 -677 -3 -680 -7z m163 -153 c0 -5 -2 -10 -4
-10 -3 0 -8 5 -11 10 -3 6 -1 10 4 10 6 0 11 -4 11 -10z m400 -770 c0 -5 -8
-10 -17 -10 -15 0 -16 2 -3 10 19 12 20 12 20 0z m151 -33 c-8 -8 -11 -7 -11
4 0 20 13 34 18 19 3 -7 -1 -17 -7 -23z m218 -410 c14 4 14 3 1 -6 -22 -16
-40 -13 -40 6 0 13 3 14 11 6 6 -6 19 -9 28 -6z"/>
<path d="M14650 4190 c0 -42 -5 -39 79 -56 13 -3 34 2 48 11 25 17 40 15 28
-4 -3 -6 -14 -11 -23 -11 -11 0 -7 -6 13 -18 64 -39 60 -4 60 -594 l0 -540
-32 -28 c-24 -21 -46 -30 -90 -35 -81 -9 -83 -10 -83 -50 l0 -35 60 0 c33 0
60 4 60 10 0 6 9 10 21 10 11 0 17 -4 14 -10 -4 -7 182 -10 549 -10 l556 0 0
33 c0 21 7 36 19 44 16 10 20 31 27 175 5 90 9 170 9 178 0 10 -12 16 -37 18
-33 3 -38 0 -45 -25 -16 -56 -109 -208 -158 -259 -41 -43 -59 -54 -103 -63
-78 -16 -305 -14 -347 3 -66 28 -65 16 -65 610 l0 534 30 25 c16 14 49 28 72
32 116 18 108 13 108 57 0 37 -2 39 -17 27 -13 -11 -17 -11 -20 -1 -4 9 -86
12 -369 12 l-364 0 0 -40z m414 -28 c2 -4 -4 -13 -15 -20 -10 -7 -19 -10 -19
-8 0 2 -3 11 -6 20 -4 11 0 16 14 16 12 0 23 -4 26 -8z m-144 -216 c0 -8 -4
-18 -10 -21 -5 -3 -10 -4 -10 -1 0 2 -3 11 -6 20 -4 11 -1 16 10 16 9 0 16 -6
16 -14z m-20 -310 c0 -3 -4 -8 -10 -11 -5 -3 -10 -1 -10 4 0 6 5 11 10 11 6 0
10 -2 10 -4z m216 -343 c-10 -10 -19 5 -10 18 6 11 8 11 12 0 2 -7 1 -15 -2
-18z"/>
<path d="M19397 4223 c-4 -3 -7 -21 -7 -39 0 -31 1 -32 72 -50 50 -12 81 -26
100 -45 l28 -27 0 -545 0 -545 -29 -25 c-17 -14 -28 -26 -26 -28 1 -2 -20 -5
-48 -6 -88 -4 -97 -9 -97 -48 l0 -35 381 0 380 0 -3 38 c-3 31 -7 37 -28 40
-14 1 -52 9 -85 18 -89 22 -89 21 -93 322 l-3 252 300 0 301 0 0 -258 c0 -217
-2 -261 -16 -280 -22 -32 -52 -45 -119 -51 l-60 -6 -3 -37 -3 -37 381 -1 381
0 -3 37 c-3 37 -4 38 -56 45 -76 11 -118 32 -137 67 -14 28 -15 91 -12 558 2
291 6 538 9 551 5 26 28 54 28 34 0 -9 5 -10 18 -3 10 5 49 15 86 22 l67 11
-3 37 -3 36 -314 3 c-246 2 -316 0 -323 -10 -6 -10 -8 -10 -8 0 0 8 -18 12
-55 12 l-55 0 0 -39 c0 -39 0 -39 53 -51 67 -16 123 -45 137 -69 6 -12 10
-108 10 -240 l0 -221 -257 -1 c-142 -1 -273 -1 -291 0 -18 2 -38 -2 -45 -8
-10 -7 -12 13 -10 92 2 56 4 163 6 237 2 74 7 143 12 153 11 26 52 44 129 58
l67 11 -3 37 -3 36 -371 3 c-204 1 -373 -1 -377 -5z m713 -33 c0 -5 -4 -10
-10 -10 -5 0 -10 5 -10 10 0 6 5 10 10 10 6 0 10 -4 10 -10z m625 -40 c3 -5
-3 -10 -15 -10 -12 0 -18 5 -15 10 3 6 10 10 15 10 5 0 12 -4 15 -10z m-951
-69 c-2 -3 -12 3 -22 13 -16 17 -16 18 5 5 12 -7 20 -15 17 -18z m796 -31 c0
-5 -2 -10 -4 -10 -3 0 -8 5 -11 10 -3 6 -1 10 4 10 6 0 11 -4 11 -10z m153
-45 c7 -16 -8 -29 -23 -20 -15 9 -12 35 4 35 8 0 16 -7 19 -15z m47 -236 c0
-6 -4 -7 -10 -4 -5 3 -10 11 -10 16 0 6 5 7 10 4 6 -3 10 -11 10 -16z m-980
-149 c0 -5 -4 -10 -10 -10 -5 0 -10 5 -10 10 0 6 5 10 10 10 6 0 10 -4 10 -10z
m860 -30 c0 -5 -4 -10 -9 -10 -6 0 -13 5 -16 10 -3 6 1 10 9 10 9 0 16 -4 16
-10z m57 -12 c-3 -8 -6 -5 -6 6 -1 11 2 17 5 13 3 -3 4 -12 1 -19z m-1010
-143 c8 -22 -6 -33 -17 -15 -13 20 -12 30 0 30 6 0 13 -7 17 -15z m187 -20
c-4 -8 -8 -15 -10 -15 -2 0 -4 7 -4 15 0 8 4 15 10 15 5 0 7 -7 4 -15z m916
-25 c0 -5 -4 -10 -10 -10 -5 0 -10 5 -10 10 0 6 5 10 10 10 6 0 10 -4 10 -10z
m-920 -110 c0 -5 -2 -10 -4 -10 -3 0 -8 5 -11 10 -3 6 -1 10 4 10 6 0 11 -4
11 -10z m1122 -432 c-7 -7 -12 -8 -12 -2 0 14 12 26 19 19 2 -3 -1 -11 -7 -17z"/>
<path d="M21236 4223 c-3 -3 -6 -21 -6 -39 0 -32 2 -33 58 -44 77 -16 131 -45
143 -77 6 -16 9 -226 9 -545 0 -570 0 -563 -60 -588 -17 -7 -56 -15 -88 -19
l-57 -6 -3 -37 -3 -38 659 0 659 0 7 118 c3 64 9 161 13 215 l6 97 -36 0 c-34
0 -39 -4 -63 -52 -40 -79 -119 -199 -151 -230 -46 -44 -77 -51 -258 -55 -149
-4 -174 -2 -205 14 -56 29 -70 69 -70 205 0 67 -4 119 -10 123 -7 4 -7 12 0
25 5 10 10 64 10 119 l0 101 85 0 c194 0 255 -41 300 -202 16 -56 18 -58 51
-58 l34 0 0 296 0 295 -36 -3 c-35 -3 -37 -6 -54 -59 -44 -144 -98 -179 -276
-179 l-104 0 0 271 0 272 183 -5 c162 -5 187 -8 225 -27 57 -29 133 -110 172
-183 29 -53 34 -58 66 -58 l34 0 0 180 0 180 -614 0 c-337 0 -616 -3 -620 -7z
m80 -30 c-10 -10 -19 5 -10 18 6 11 8 11 12 0 2 -7 1 -15 -2 -18z m394 -33 c0
-5 -4 -10 -10 -10 -5 0 -10 5 -10 10 0 6 5 10 10 10 6 0 10 -4 10 -10z m-180
-94 c0 -3 -4 -8 -10 -11 -5 -3 -10 -1 -10 4 0 6 5 11 10 11 6 0 10 -2 10 -4z
m-61 -198 c12 -15 11 -18 -3 -18 -10 0 -16 8 -16 22 0 12 1 19 3 17 1 -2 9
-12 16 -21z m61 -78 c0 -5 -7 -10 -15 -10 -8 0 -15 5 -15 10 0 6 7 10 15 10 8
0 15 -4 15 -10z m170 -274 c0 -3 -4 -8 -10 -11 -5 -3 -10 -1 -10 4 0 6 5 11
10 11 6 0 10 -2 10 -4z m-195 -126 c3 -5 -1 -10 -10 -10 -9 0 -13 5 -10 10 3
6 8 10 10 10 2 0 7 -4 10 -10z m-1 -119 c3 -5 -1 -11 -9 -15 -15 -6 -29 7 -18
18 9 9 21 8 27 -3z m186 -155 c0 -3 -4 -8 -10 -11 -5 -3 -10 -1 -10 4 0 6 5
11 10 11 6 0 10 -2 10 -4z m280 -210 c0 -3 -4 -8 -10 -11 -5 -3 -10 -1 -10 4
0 6 5 11 10 11 6 0 10 -2 10 -4z m270 -36 c0 -5 -5 -10 -11 -10 -5 0 -7 5 -4
10 3 6 8 10 11 10 2 0 4 -4 4 -10z"/>
<path d="M22690 4191 c0 -36 3 -41 28 -47 84 -18 130 -36 150 -57 l22 -23 0
-544 1 -544 -24 -24 c-25 -24 -79 -41 -133 -42 -34 0 -44 -13 -44 -56 l0 -24
376 0 375 1 -3 36 c-3 36 -4 37 -65 49 -73 15 -111 37 -121 73 -4 14 -7 125
-7 246 l0 220 26 3 c22 3 38 -13 118 -113 103 -129 214 -282 306 -423 l60 -92
213 0 212 0 0 35 c0 28 5 38 23 45 19 7 19 9 3 9 -54 2 -135 88 -389 413 -128
165 -147 198 -113 198 8 0 50 18 94 40 141 71 200 153 209 290 13 189 -78 295
-297 345 -64 15 -147 18 -547 22 l-473 5 0 -41z m157 -57 c-3 -3 -12 -4 -19
-1 -8 3 -5 6 6 6 11 1 17 -2 13 -5z m552 -4 c35 -6 80 -19 101 -30 49 -25 96
-80 109 -127 18 -64 13 -191 -10 -253 -11 -30 -20 -64 -20 -75 0 -13 -2 -16
-8 -7 -5 9 -13 6 -30 -12 -41 -44 -117 -69 -211 -70 l-85 -1 -3 280 c-1 154 0
285 3 292 5 16 67 17 154 3z m301 -2 c0 -5 -9 -8 -19 -8 -11 0 -22 3 -24 8 -3
4 6 7 19 7 13 0 24 -3 24 -7z m-640 -278 c0 -5 -4 -10 -9 -10 -6 0 -13 5 -16
10 -3 6 1 10 9 10 9 0 16 -4 16 -10z m730 -141 c0 -6 -4 -7 -10 -4 -5 3 -10
11 -10 16 0 6 5 7 10 4 6 -3 10 -11 10 -16z m-400 -269 c0 -5 -2 -10 -4 -10
-3 0 -8 5 -11 10 -3 6 -1 10 4 10 6 0 11 -4 11 -10z m30 -10 c0 -5 -4 -10 -10
-10 -5 0 -10 5 -10 10 0 6 5 10 10 10 6 0 10 -4 10 -10z m410 -204 c0 -3 -4
-8 -10 -11 -5 -3 -10 -1 -10 4 0 6 5 11 10 11 6 0 10 -2 10 -4z m-605 -136
c-3 -5 -13 -10 -21 -10 -8 0 -12 5 -9 10 3 6 13 10 21 10 8 0 12 -4 9 -10z"/>
<path d="M25830 4191 l0 -39 71 -17 c47 -12 83 -28 103 -46 l31 -27 0 -540 c0
-525 -1 -541 -20 -562 -29 -32 -50 -41 -118 -48 l-62 -7 -3 -37 -3 -38 381 0
381 0 -3 37 c-3 37 -4 38 -56 45 -29 5 -65 14 -80 22 -15 7 -32 11 -38 9 -19
-6 -24 61 -24 316 l0 244 108 -5 c112 -6 164 -20 195 -56 11 -12 26 -18 38
-15 21 6 25 -7 8 -24 -8 -8 -6 -19 5 -40 8 -17 20 -51 27 -76 11 -46 12 -47
50 -47 l39 0 0 295 c0 283 -1 295 -19 295 -12 0 -18 -7 -17 -17 0 -10 -6 -18
-14 -18 -9 0 -14 7 -12 18 2 9 -2 17 -8 17 -5 0 -10 -6 -10 -12 0 -7 -11 -40
-25 -72 -17 -43 -21 -63 -14 -72 14 -17 3 -34 -23 -34 -11 0 -37 -10 -57 -22
-31 -20 -53 -23 -153 -27 l-118 -3 0 278 0 277 189 -6 c127 -4 200 -11 223
-20 47 -20 138 -122 179 -201 33 -63 35 -66 72 -66 l37 0 0 145 c0 145 0 145
23 145 39 0 125 -49 163 -93 36 -43 228 -358 345 -567 l64 -114 0 -194 0 -194
-32 -28 c-24 -22 -46 -30 -90 -35 -32 -3 -65 -7 -73 -8 -10 -1 -16 -16 -18
-40 l-3 -37 390 0 391 0 0 35 c0 39 2 38 -90 56 -46 9 -73 21 -92 40 l-28 27
0 196 0 195 45 87 44 86 -22 20 c-20 18 -15 19 23 4 11 -4 44 40 125 166 197
310 244 362 353 394 51 15 52 16 52 55 l0 39 -257 -2 -258 -3 -3 -36 -3 -37
53 -7 c71 -10 115 -29 123 -53 7 -25 -29 -100 -126 -258 -38 -62 -69 -119 -69
-126 0 -8 -7 -23 -16 -34 -8 -10 -13 -12 -9 -4 9 22 -7 0 -60 -84 l-43 -68
-64 108 c-95 160 -217 381 -238 430 -27 61 -14 74 88 87 l82 11 0 38 0 38
-385 0 -385 0 0 -40 c0 -29 -4 -40 -15 -40 -11 0 -15 11 -15 40 l0 40 -615 0
-615 0 0 -39z m2626 -8 c-10 -10 -19 5 -10 18 6 11 8 11 12 0 2 -7 1 -15 -2
-18z m-1509 2 c8 -22 -6 -33 -17 -15 -13 20 -12 30 0 30 6 0 13 -7 17 -15z
m220 -17 c-3 -8 -6 -5 -6 6 -1 11 2 17 5 13 3 -3 4 -12 1 -19z m-337 -457 c0
-12 -29 -35 -36 -28 -7 6 17 36 29 37 4 0 7 -4 7 -9z m-450 -111 c0 -5 -2 -10
-4 -10 -3 0 -8 5 -11 10 -3 6 -1 10 4 10 6 0 11 -4 11 -10z m-204 -77 c-10
-10 -19 5 -10 18 6 11 8 11 12 0 2 -7 1 -15 -2 -18z m364 17 c0 -5 -5 -10 -11
-10 -5 0 -7 5 -4 10 3 6 8 10 11 10 2 0 4 -4 4 -10z m75 -10 c3 -5 1 -10 -4
-10 -6 0 -11 5 -11 10 0 6 2 10 4 10 3 0 8 -4 11 -10z m115 -10 c0 -5 -5 -10
-11 -10 -5 0 -7 5 -4 10 3 6 8 10 11 10 2 0 4 -4 4 -10z m80 -50 c0 -5 -12
-10 -26 -10 -14 0 -23 4 -19 10 3 6 15 10 26 10 10 0 19 -4 19 -10z m-490 -14
c0 -3 -4 -8 -10 -11 -5 -3 -10 -1 -10 4 0 6 5 11 10 11 6 0 10 -2 10 -4z
m-130 -54 c0 -13 -28 -47 -34 -42 -10 10 6 50 20 50 8 0 14 -4 14 -8z m615
-22 c3 -5 1 -10 -4 -10 -6 0 -11 5 -11 10 0 6 2 10 4 10 3 0 8 -4 11 -10z
m-440 -160 c3 -5 1 -10 -4 -10 -6 0 -11 5 -11 10 0 6 2 10 4 10 3 0 8 -4 11
-10z m-245 -44 c0 -7 -11 -16 -25 -18 -29 -6 -33 6 -7 21 24 14 32 13 32 -3z
m225 4 c-3 -5 -12 -10 -18 -10 -7 0 -6 4 3 10 19 12 23 12 15 0z m1675 -134
c0 -3 -4 -8 -10 -11 -5 -3 -10 -1 -10 4 0 6 5 11 10 11 6 0 10 -2 10 -4z
m-299 -99 c-8 -8 -11 -7 -11 4 0 20 13 34 18 19 3 -7 -1 -17 -7 -23z m199 8
c0 -8 -4 -15 -10 -15 -5 0 -10 7 -10 15 0 8 5 15 10 15 6 0 10 -7 10 -15z
m-1723 -1 c-3 -3 -12 -4 -19 -1 -8 3 -5 6 6 6 11 1 17 -2 13 -5z"/>
</g>
</svg>
