<svg width="958" height="530" viewBox="0 0 958 530" fill="none" xmlns="http://www.w3.org/2000/svg">
<path d="M953.84 393.909C957.029 390.554 955.085 384.344 952.857 374.573C952.244 371.499 952.753 368.307 954.291 365.575C955.187 363.982 957.097 363.396 954.525 361.558C951.877 359.667 954.392 357.197 953.659 355.063C952.52 351.761 958.44 351.167 957.88 348.24C957.392 345.702 953.458 343.992 954.574 340.887C955.342 338.742 955.187 336.355 955.1 334.074C955.036 332.626 953.973 331.631 951.601 331.62C949.229 331.608 946.669 331.31 944.203 331.143C944.157 331.794 944.135 332.46 945.387 333.946C945.489 333.98 945.644 333.984 945.7 334.025C947.58 335.467 949.347 336.983 947.584 336.181C950.213 339.082 949.846 339.495 949.347 339.608C945.655 340.456 943.628 338.746 943.923 335.16C943.928 334.974 943.921 334.789 943.904 334.604C941.494 333.541 940.761 333.012 941.199 331.862C941.366 331.423 943.155 331.374 944.195 331.136C944.675 330.39 945.012 329.07 945.67 328.995C949.26 328.598 952.74 328.688 952.214 324.63C951.802 321.479 952.577 318.29 952.732 315.109C952.899 311.629 954.226 308.025 949.854 304.991C949.407 304.681 950.451 302.245 951.616 301.716C956.174 299.578 951.442 294.151 957.335 292.645C957.513 292.604 957.619 291.862 957.434 291.745C952.452 288.745 955.603 284.982 955.005 281.57C954.767 280.152 953.326 279.407 951.197 279.327C950.194 279.286 949.211 278.506 948.219 278.06C953.984 276.441 950.705 271.792 953.296 269.027C955.418 266.754 955.077 266.573 953.557 265.218C951.938 263.774 952.259 263.808 952.899 258.206C953.731 250.981 954.067 243.708 954.404 236.442C954.461 235.258 953.942 233.521 952.827 232.882C947.807 230.004 947.841 225.991 947.123 222.087C946.93 221.032 943.469 220.703 945.636 219.088C946.931 218.097 948.326 217.242 949.797 216.538C950.077 216.41 951.9 217.317 951.953 217.779C952.149 219.572 951.851 221.376 951.904 223.177C951.911 223.525 952.936 224.209 953.038 224.175C953.897 223.846 955.308 223.418 955.327 222.923C955.902 217.053 956.238 211.141 956.647 205.248C950.864 198.927 954.612 192.243 954.253 185.704C954.267 185.263 954.163 184.827 953.95 184.44C953.66 183.971 953.222 183.61 952.706 183.415C952.407 183.321 951.821 183.741 951.397 183.967C948.556 185.409 948.322 186.332 949.922 189.664C950.814 191.517 949.895 193.73 947.531 193.734C945.273 193.682 943.053 194.33 941.177 195.587C940.931 195.742 938.877 194.944 938.869 194.604C938.805 192.331 939.066 190.065 939.221 187.799C938.192 187.406 936.891 187.194 936.184 186.592C930.071 181.448 930.48 180.064 938.483 176.44C940.511 175.517 943.609 174.243 943.696 172.96C943.964 169.061 948.473 168.145 950.947 165.838C951.272 165.513 950.69 164.506 950.247 163.928C950.062 163.689 949.037 163.587 948.534 163.727C946.949 164.147 945.409 164.673 943.889 165.21C940.015 166.594 937.084 165.849 937.201 163.44C937.36 159.816 937.5 156.174 938.026 152.554C938.188 151.385 939.433 150.323 940.223 149.229C943.2 145.133 942.118 143.817 936.161 143.518C933.385 143.374 931.868 144.52 929.776 145.235C927.685 145.95 927.288 144.304 927.42 142.977C927.511 142.506 927.505 142.022 927.401 141.555C927.298 141.087 927.1 140.645 926.818 140.257C926.701 140.246 926.629 140.227 926.788 140.182C923.668 138.914 923.743 137.318 924.564 135.688C924.875 135.311 925.293 135.038 925.763 134.905C926.535 135.351 927.677 135.873 927.779 136.437C928.002 137.636 927.738 138.877 927.567 140.091C933.082 139.554 935.121 136.1 938.741 134.273C939.456 133.914 938.919 131.894 938.45 130.737C938.128 129.954 936.921 129.337 936.112 128.649C934.478 127.257 932.681 125.975 931.331 124.473C930.646 123.698 927.272 123.032 930.238 121.61C932.477 120.535 932.768 118.988 933.022 117.146C933.521 113.545 933.729 113.564 937.943 113.466C939.675 113.428 941.423 113.451 943.14 113.315C943.59 113.281 944.312 112.755 944.267 112.49C944.164 112.247 944.008 112.031 943.811 111.857C943.613 111.683 943.378 111.555 943.125 111.484C942.015 111.202 940.89 110.989 939.754 110.845C933.699 109.88 933.699 109.88 933.778 104.929C930.703 104.721 927.624 104.547 924.56 104.252C924.044 104.079 923.611 103.719 923.346 103.242C923.279 103.087 923.262 102.914 923.3 102.748C923.337 102.583 923.426 102.434 923.554 102.323C924.871 101.408 926.104 99.9929 927.673 99.7924C932.14 99.2137 934.694 98.2718 934.781 94.1981C934.868 90.1244 933.339 87.265 928.483 85.3662C927.461 84.9653 926.138 84.9803 925.188 84.5226C923.471 83.698 923.966 80.1085 925.899 80.0291C928.689 79.9292 931.406 79.1138 933.79 77.6613C935.832 76.5114 939.028 77.9602 939.225 79.8439C939.372 81.2093 938.877 82.5746 939.043 83.9287C939.21 85.2829 940.239 86.3419 942.576 86.3571C945.031 86.3684 947.493 86.6598 949.956 86.83C950.047 85.4759 950.334 84.1065 950.118 82.7713C950.05 82.3703 948.061 81.614 947.815 81.7691C945.231 83.3993 942.841 84.7459 943.015 80.5171C943.106 78.2249 942.928 76.3299 940.67 74.3063C939.448 73.2056 940.17 70.9323 940.012 69.1924L940.556 60.5834C939.928 59.199 938.839 58.4577 936.691 58.3442C933.638 58.1891 930.926 57.9508 928.396 59.7853C926.97 60.8104 924.25 60.8595 922.117 61.3437C923.255 63.511 925.858 63.2386 928.048 63.2575C932.564 63.2802 933.922 66.1966 936.222 68.1635C936.781 68.6401 936.498 70.0584 935.934 70.7203C935.371 71.3822 934.058 71.7567 933.003 71.8059C931.948 71.8551 930.408 71.5714 929.784 71.0154C927.155 68.6438 925.797 67.9971 924.734 71.7228C924.008 74.2722 921.247 74.4538 918.1 72.7668C916.689 72.0065 915.236 71.2878 913.803 70.5502C914.389 74.2154 912.702 76.3184 907.244 76.1331C906.775 76.1179 906.299 77.5099 905.826 78.2475C908.277 78.4291 910.754 78.5463 913.209 78.7695C915.664 78.9927 917.922 81.4247 916.655 82.4876C914.715 84.1178 912.279 85.4418 910.482 87.1477C909.135 88.4186 908.485 90.098 907.437 91.5618C907.339 91.7056 906.518 91.7244 906.196 91.5542C905.697 91.297 905.016 90.8506 905.035 90.5216C905.232 86.4289 905.542 82.3363 905.826 78.2475C904.797 77.8541 903.004 77.5515 902.868 77.0522C902.263 74.8584 901.676 72.8349 899.274 71.1139C897.209 69.6312 895.689 69.1622 895.333 70.5617C895.106 71.4392 894.645 72.5058 895.106 73.2093C895.901 74.4121 897.841 75.2859 898.378 76.4811C898.915 77.6763 898.522 79.2121 898.2 80.5398C897.372 83.9931 899.165 87.8134 895.923 91.524L883.668 81.0843C884.61 76.1709 879.95 76.239 875.653 76.1861C874.617 76.1709 873.599 76.8252 872.567 77.1694C873.372 77.7255 874.117 78.6448 874.999 78.7696C877.521 79.1516 879.814 79.2952 879.549 81.943C879.099 86.4857 878.83 91.0587 878.584 95.6015C878.422 98.3589 875.093 99.1683 872.843 100.337C870.804 101.392 868.648 99.9929 866.666 98.6388C863.886 96.7438 863.368 96.8988 860.485 98.0109C859.438 98.408 858.719 99.2705 857.656 99.6147C855.625 100.269 852.406 98.6162 852.448 97.0086C852.501 95.1855 852.652 93.3624 852.818 91.5468C853.072 88.8121 853.034 88.9104 857.694 90.7638C859.105 91.3198 861.495 91.7283 862.524 91.229C863.647 90.6654 864.589 88.1955 864.113 87.9004C859.286 84.8972 861.117 81.2204 861.246 77.733C861.344 75.055 858.836 75.0588 856.385 74.8092C853.934 74.5595 851.46 74.3554 849.819 76.0348C848.744 77.109 847.852 77.2452 847.194 76.0878C846.309 74.5067 845.635 72.865 844.879 71.2461C844.573 70.5842 844.3 69.911 844.005 69.2453C845.087 68.982 846.191 68.8199 847.303 68.7611C849.111 68.799 851.797 68.6022 852.591 69.3587C857.312 73.8598 863.874 72.2752 869.631 72.8349C871.436 73.0127 873.497 71.1327 875.411 70.1568C875.857 69.9299 876.538 69.5365 876.478 69.2869C876.376 69.0368 876.218 68.8139 876.015 68.6359C875.812 68.458 875.57 68.3299 875.309 68.2618C870.46 67.7549 865.569 67.4106 860.739 66.8244C859.869 66.7109 858.432 65.5763 858.503 65.0429C858.666 63.8288 859.672 61.6728 860.213 61.6993C865.051 62.0586 866.67 60.5381 866.412 57.1188C866.231 54.471 867.6 51.6568 863.731 49.6634C865.232 47.5566 866.356 45.2152 868.342 43.411C870.562 41.3949 873.289 39.5 877.677 40.5213C878.824 40.7052 879.998 40.6405 881.119 40.3321C882.862 39.9273 882.654 39.3335 881.206 38.3917C878.91 36.9052 878.229 35.3166 882.344 35.4527C885.525 35.5549 886.815 34.5751 886.592 32.438C886.509 31.6588 885.574 30.8986 885.037 30.127C880.869 34.1137 874.968 31.5493 869.843 31.9616C869.09 32.0183 868.096 33.24 868.054 33.9549C867.842 36.1487 866.647 37.0868 863.553 36.8902C862.543 36.8259 860.595 37.4726 860.595 37.8433C860.602 41.5198 858.057 42.4692 853.632 41.637C849.902 40.9335 848.37 43.237 845.991 44.4134C844.712 45.0488 844.735 45.6691 846.305 46.3688C846.819 46.634 847.396 46.7531 847.973 46.713C850.64 46.0435 853.204 45.1357 855.92 44.6213C856.76 44.4624 858.031 45.219 859.006 45.6728C859.18 45.7485 859.188 46.4067 858.969 46.5807C858.114 47.2389 856.518 47.67 856.362 48.3698C855.697 51.3428 854.554 53.1357 849.49 52.4511C844.259 51.7589 838.868 50.9079 834.042 53.8885C832.707 54.7093 829.057 53.6917 829.594 51.0288C829.931 49.3381 828.788 48.4834 826.886 48.056C822.925 47.1596 818.22 48.854 814.827 45.7411C814.32 45.2796 812.641 44.818 812.384 45.0071C810.519 46.4028 809.305 46.9741 806.926 44.9353C804.739 43.0593 800.378 43.1614 798.37 40.7443C796.524 41.9245 794.844 43.2332 792.825 44.194C791.444 44.8181 789.587 45.4195 788.04 45.2569C783.75 44.8181 780.762 45.166 781.054 49.0884C781.065 49.2284 779.015 49.7353 778.572 49.4743C775.35 47.5377 773.942 43.8914 768.605 43.8347C768.117 43.8309 767.248 41.5689 767.081 40.3358C766.824 38.5656 767.785 37.136 769.23 35.5549C772.066 32.4306 772.089 28.9658 770.739 25.5729C770.575 25.4258 770.383 25.3138 770.174 25.2442C769.965 25.1746 769.744 25.1488 769.525 25.1682C768.987 25.3119 768.258 25.6788 768.186 26.0079C767.902 27.8046 768.484 29.8849 767.475 31.3487C765.738 33.8413 762.096 32.3927 759.248 32.2755C758.347 32.2376 757.481 31.2655 756.577 30.7398C757.061 30.4831 757.522 30.1844 757.954 29.8471C761.528 26.4315 761.434 26.5186 755.556 23.7876C753.082 22.6378 751.758 20.2925 747.995 20.4929C743.698 20.735 739.401 20.3493 736.787 17.0321C733.292 17.0472 729.812 15.8519 726.567 18.2878C722.966 20.9885 719.566 24.3662 713.382 24.2868C713.071 24.2867 712.481 24.8995 712.538 25.1302C712.701 25.5274 713.359 25.8225 713.714 26.2234C714.285 26.8854 714.773 27.5851 715.295 28.2659C713.616 28.4929 711.668 29.2532 710.318 28.8334C708.124 28.1525 707.016 24.4193 703.645 27.7365C703.135 28.2471 701.452 28.3719 700.374 28.2471C694.764 27.5095 691.277 29.1663 696.326 35.275C698.861 33.8831 699.205 34.1592 701.179 35.8537C701.992 36.5535 702.783 37.223 696.474 35.4679C703.521 39.7232 695.997 42.594 694.102 41.2058C691.689 39.4356 690.112 38.2063 687.544 40.6081C687.457 40.6951 685.493 40.0711 685.289 39.5718C685.102 39.1597 685.018 38.7086 685.043 38.2568C685.068 37.8051 685.202 37.366 685.433 36.977C686.356 35.6305 689.204 35.2939 689.332 33.4329C686.272 32.3246 685.686 31.4961 685.917 30.6451C687.029 26.5071 691.757 24.7598 696.262 22.9934C696.375 22.948 696.988 23.7195 697.48 23.9767C698.267 24.3626 699.163 24.6159 700.014 24.9298C700.377 23.7195 701.599 22.059 700.941 21.3781C698.827 19.2032 692.726 19.6609 693.747 15.1447C693.996 14.0326 692.082 13.6997 691.341 14.789C689.665 17.259 685.448 15.3867 683.549 17.1493C680.69 19.8348 676.699 17.7583 673.427 18.4202C672.607 18.5905 671.869 19.6987 671.699 20.4741C671.618 20.9112 671.648 21.3614 671.786 21.7841C671.923 22.2068 672.164 22.5885 672.485 22.8949C673.166 23.4623 674.558 23.6136 675.678 23.8178C677.686 24.2074 678.681 24.9753 678.689 26.6245C678.696 28.2736 677.637 29.2872 675.742 29.2759C672.16 29.2494 669.157 29.3857 665.62 30.6982C661.91 32.0788 656.569 31.4811 652.166 29.0225C646.95 26.076 640.792 26.6812 634.918 27.222C633.677 27.3355 634.037 28.2849 635.357 29.1738C635.987 29.6744 636.47 30.3356 636.756 31.0878C633.931 32.4003 629.861 31.8025 627.678 34.1514C624.395 30.5581 616.063 30.7587 615.431 25.1795C609.205 23.4547 604.726 29.0755 598.353 26.9309C598.107 26.8514 597.029 27.4981 597.075 27.7553C597.869 32.4834 591.548 31.0574 589.097 32.9108C588.439 33.4101 588.371 34.7265 588.764 35.5133C589.521 37.0262 590.879 37.1813 592.426 35.9596C593.286 35.2099 594.375 34.7735 595.515 34.7213C596.655 34.6691 597.779 35.0042 598.705 35.6721C600.46 36.8901 601.587 38.6223 603.981 36.4474C605.933 34.6848 609.356 35.7704 611.97 34.2612C615.851 31.9993 618.457 33.5236 618.336 37.2909C618.2 41.3987 617.696 42.1591 612.083 41.3194C606.47 40.4797 602.544 41.8262 599.317 44.682C596.091 47.5377 595.191 42.1061 592.842 43.5927C590.86 44.856 589.54 45.7675 587.478 43.4866C586.117 41.9812 584.097 40.8161 584.713 38.7395C585.905 34.7112 578.707 31.5907 581.793 27.3392C579.743 25.7052 577.924 23.8253 575.518 22.577C574.663 22.1232 572.42 23.1937 570.786 23.5266C569.152 23.8594 566.856 24.8543 566.024 24.3853C563.687 23.0614 560.453 21.1588 560.328 19.4454C560.093 16.5329 558.478 12.9356 562.412 10.5904C564.073 9.60322 564.462 8.65398 562.427 7.82185C561.451 7.42848 559.371 7.26191 558.928 7.67418C556.269 10.1441 552.793 10.0951 549.045 9.58444C545.92 9.16081 543.193 9.2705 540.723 11.0974C539.925 11.6913 537.508 11.1655 535.851 10.9991C535.398 10.9537 535.008 10.3296 534.599 9.98162C533.37 8.94145 532.307 7.68936 530.828 6.86858C529.486 6.10829 527.538 5.22704 526.172 5.41994C525.049 5.58259 523.611 7.22423 523.668 8.21146C523.865 13.1892 521.872 17.5276 519.023 21.8812C517.011 24.9677 513.981 23.2391 511.281 24.0712C510.479 25.0546 509.302 25.8754 509.019 25.7203C506.859 24.6045 508.432 23.9312 509.7 23.3752C510.217 23.2178 510.776 23.2624 511.262 23.5001C511.334 23.5719 511.319 23.6703 511.326 23.7687C511.413 22.9252 511.606 22.4069 511.375 22.1157C510.206 20.5989 507.585 19.7629 507.956 17.5162C508.372 14.9063 510.861 15.5039 513.187 15.1824C514.303 15.0349 515.585 13.4047 515.695 12.3493C515.944 10.0345 516.149 7.90883 519.133 6.58875C519.296 6.51689 518.77 4.97728 518.15 4.7352C515.646 3.74418 509.836 4.50081 508.081 5.90788C504.83 8.48823 502.266 11.8312 500.618 15.6402C499.892 17.2969 497.142 17.4596 494.509 16.34C494.025 16.0927 493.602 15.7398 493.272 15.3074C491.914 13.7452 490.231 13.9682 489.728 15.3639C489.346 16.4193 489.898 18.3181 490.965 18.9309C492.644 19.8992 496.079 19.2108 496.476 21.5068C496.695 23.3077 496.434 25.1347 495.72 26.8022C495.232 28.0466 494.252 27.7932 493.106 26.9346C492.236 26.2915 491.805 23.8179 489.331 25.7091C487.3 27.2561 485.344 27.7743 485.272 24.737C485.246 23.1976 484.584 22.3162 482.924 21.4954C478.09 19.1124 478.184 19.1086 480.843 15.3829C481.644 14.333 482.136 13.0809 482.265 11.7668C482.312 10.4391 481.924 9.1324 481.161 8.04485C480.31 6.84582 478.721 5.02277 477.549 5.02277C474.523 5.02277 475.722 7.60619 474.621 8.90359C473.52 10.201 469.299 10.0497 468.391 8.59727C467.915 7.84077 468.1 6.8912 467.847 6.04772C467.412 4.61415 466.436 3.77461 464.174 3.66871C461.912 3.56281 461.065 4.34184 460.388 5.70733C459.892 6.72479 458.882 7.63634 458.099 8.5933C457.657 7.35643 457.399 6.07047 456.738 4.89412C455.429 2.55656 450.595 1.91367 449.698 4.07345C448.76 6.33537 448.859 8.30979 444.471 7.92398C440.405 7.56466 436.191 6.45248 432.541 9.30823C431.433 10.1744 427.942 9.41431 425.54 9.28949C423.781 9.19493 423.429 8.00343 424.715 6.71739C425.317 6.11598 425.922 5.51077 426.527 4.90558C424.897 4.4479 423.278 3.72164 421.64 3.6422C420.728 3.6006 419.787 4.64082 418.871 5.2082C417.956 5.77555 417.078 6.40329 416.118 6.9404C415.263 7.41699 414.321 7.80666 413.417 8.23406C412.919 7.02163 412.503 5.77683 412.173 4.50831C412.002 3.61943 412.551 2.61711 412.218 1.80766C411.987 1.22894 410.811 0.831843 410.058 0.351479C408.598 3.74812 399.172 0.358945 400.594 6.32012C400.606 6.37686 398.499 6.94791 398.132 6.68692C396.336 5.47002 394.676 4.06375 393.181 2.49222C392.099 1.30453 391.562 1.16837 390.491 2.32201C388.96 3.98253 386.134 3.37354 384.209 4.01277C382.609 4.54611 382.51 7.05015 381.077 8.23406C378.732 10.1707 376.194 11.6724 371.761 11.2261C367.328 10.7797 367.241 11.2903 366.666 16.2226C367.736 15.9767 369.189 15.9691 369.817 15.4396C372.793 12.8562 377.196 13.5371 379.817 14.7361C383.362 16.3512 386.206 19.2486 388.4 21.9946C389.455 23.3072 388.472 25.5539 388.093 27.3316C388.029 27.6532 385.843 28.107 385.639 27.9028C383.055 25.5463 381.232 24.7445 380.665 28.6329C380.449 30.127 379.254 30.8003 377.037 30.7474C374.821 30.6944 373.501 29.8431 373.357 28.4209C373.16 26.5297 373.319 24.7671 369.748 24.6839C367.902 24.6593 366.058 24.5282 364.226 24.2907C360.587 23.7612 358.344 24.302 358.337 27.4793C358.337 28.1526 357.081 28.8788 356.211 29.4083C354.959 30.1686 353.522 30.7662 352.179 31.4282C351.782 30.1762 351.445 28.9166 350.957 27.6873C350.806 27.2863 350.189 26.6244 349.921 26.6509C349.013 26.7416 347.492 26.9838 347.413 27.3507C347.019 29.1284 347.088 30.9666 346.827 32.7633C346.778 33.0999 345.752 33.671 345.552 33.5841C344.701 33.2474 343.392 32.718 343.347 32.2339C343.229 30.4372 343.786 28.595 340.26 28.1335C339.152 27.986 337.185 27.5396 337.159 27.2106C336.784 22.4031 332.756 21.643 327.43 21.7262C323.201 21.7867 318.859 21.7034 316.132 18.3029C315.773 17.8528 313.091 17.675 312.682 18.0684C309.524 21.1057 305.223 20.1942 300.991 19.9937C297.507 19.8159 293.596 18.4845 290.85 21.276C290.703 21.4235 288.694 20.9734 288.471 20.5612C287.839 19.3772 288.093 17.9133 287.238 16.8466C286.043 15.3715 283.122 13.7376 287.937 13.6733C290.786 13.6317 292.287 12.5537 294.065 11.4795C295.332 10.7116 296.989 9.96265 294.723 8.62745C292.877 7.53809 292.234 5.4956 289.133 5.35188C282.373 5.03793 275.614 4.45166 268.855 4.04694C268.416 4.01668 267.474 4.67091 267.565 4.86005C267.864 5.52952 268.322 6.37315 269.021 6.70222C270.496 7.36038 272.702 7.42458 273.674 8.29076C274.646 9.15695 274.2 10.8289 274.926 11.9636C275.773 13.2875 279.336 14.5053 274.665 15.4017C262.368 17.7657 261.952 20.2925 262.935 8.86948C263.049 7.53049 263.306 6.13094 262.901 4.84868C262.727 4.26619 261.154 3.6156 260.11 3.44161C257.231 2.9688 253.835 3.66476 251.959 1.16834C251.051 -0.042039 250.37 -0.178085 249.33 0.72591C245.945 3.66489 241.421 1.6904 237.377 1.82281C237.68 3.5703 236.106 3.93332 234.291 4.38722C227.354 6.11958 225.64 6.89514 220.186 11.5324C217.489 13.8284 214.38 14.3729 210.476 13.7299C209.277 13.5294 208.022 13.5446 206.796 13.4538C206.838 14.7966 206.384 15.9844 204.194 15.4586C203.585 15.3111 203.46 13.9682 203.093 13.2004C201.898 12.5271 200.105 12.0051 199.662 11.139C199.11 10.0647 199.681 8.70685 199.772 7.4662C197.941 7.33761 196.084 7.31101 194.272 7.06514C190.774 6.59235 188.356 6.92921 188.319 10.1292C188.315 10.7835 186.791 12.0355 186.329 11.922C181.688 10.9575 179.634 13.6392 177.3 15.3754C174.138 17.7281 170.356 15.678 167.088 16.5101C165.367 16.9527 165.253 17.6562 166.645 18.39C169.815 20.0467 168.96 22.3616 168.79 24.5668C173.374 25.5124 174.895 28.8939 178.023 31.0007C180.621 32.7519 177.977 33.2248 176.65 33.2815C174.176 33.4102 171.638 33.0812 171.74 35.7705C175.992 36.058 180.277 36.3112 184.51 36.7311C185.024 36.784 185.86 38.4446 185.773 38.4938C183.394 39.6247 182.214 42.0531 178.499 41.811C176.241 41.6559 173.601 40.6044 171.729 42.3482C169.399 44.5193 168.302 42.749 166.516 41.5992C163.672 39.7609 163.91 37.6313 164.353 35.4412C165.023 32.0559 164.678 29.344 158.71 28.875C158.233 28.8372 158.014 26.5449 157.545 25.3194C157.393 24.9185 156.762 24.2717 156.482 24.302C155.581 24.3927 153.947 24.7938 153.993 24.9905C154.56 28.9621 152.684 31.8595 148.122 33.8868C146.191 34.8179 144.383 35.9856 142.74 37.3629C142.434 37.6088 143.379 39.2048 143.474 39.1935C148.455 38.592 151.965 40.9372 156.864 40.4795C157.117 39.7268 157.359 38.9704 157.681 38.2328C157.768 38.0323 158.467 37.9907 157.609 40.4304C160.461 38.2971 160.748 40.5438 159.356 42.3367C159.012 42.7124 158.558 42.9703 158.059 43.0743C157.714 43.1513 157.361 43.1894 157.007 43.1878C156.013 47.1102 154.95 49.7238 158.324 51.8873C159.587 52.6968 159.561 53.6766 157.824 53.7106C154.685 53.8241 152.041 54.3726 150.036 56.1504C148.868 54.2932 147.733 52.402 146.443 50.5675C146.292 50.3556 145.274 50.4576 144.662 50.4198C144.631 50.8737 144.851 51.5698 144.529 51.7476C140.724 53.8581 138.243 56.0519 143.103 59.354C143.334 59.5091 142.521 61.0863 142.146 61.0674C139.079 61.0258 136 60.8217 132.936 60.5796C129.388 60.2997 127.663 57.8789 130.175 55.8818C132.921 53.6955 135.103 52.0123 131.37 49.2473C128.65 47.2237 130.364 44.9125 130.379 42.7717C130.394 40.888 130.148 39.3865 128.299 37.8168C125.795 35.691 124.611 35.4905 123.275 38.1799C122.076 40.5893 118.112 41.6484 118.373 44.7992C118.468 45.9604 116.819 45.9149 115.896 44.7878C112.737 40.9259 104.912 43.7665 101.954 39.2805C101.81 39.0611 98.1485 39.4167 97.392 40.1959C96.6355 40.9751 97.2029 42.7227 97.9064 43.812C98.6894 45.0262 100.059 46.5619 101.587 46.9401C110.082 48.9675 112.915 54.2817 116.369 59.4977C117.927 61.8126 117.488 64.7554 120.976 66.5407C126.978 69.6158 123.941 73.9922 124.024 77.8654C124.028 78.0886 121.694 78.5614 121.573 78.4403C119.656 76.1292 116.728 75.9552 113.589 75.7056C109.806 75.4106 106.478 75.3122 103.626 77.6422C102.861 78.2701 100.112 77.5704 98.2772 77.4456C94.7368 77.2035 93.1481 74.9718 95.5122 72.7136C97.4715 70.8451 100.388 69.6839 94.5288 68.8934C93.1823 68.7269 90.1334 68.1748 92.6222 66.7072C96.7073 64.3015 94.9864 60.9616 95.7429 58.0265C92.0511 57.7693 88.3619 57.5146 84.6753 57.2624C77.4659 56.7782 77.5984 57.092 69.3489 58.7979C66.1489 59.4636 66.1072 60.6249 65.5626 62.3648C65.1389 63.7265 63.4294 64.241 61.3566 63.9157C59.2838 63.5904 58.1641 62.7885 58.304 61.1734C58.3419 60.7195 58.6142 60.1068 58.3419 59.842C57.6791 59.2465 56.9071 58.7853 56.0686 58.484C55.853 58.4046 54.7978 58.9985 54.794 59.3049C54.7788 62.4973 54.5973 65.4855 50.5122 67.5355C49.1657 68.2088 51.0304 70.6485 53.2886 71.6055C54.7221 72.2144 57.3282 73.1184 57.2337 73.5987C56.6776 76.5907 58.8222 80.0669 55.1343 82.5066C54.6947 82.3481 54.2865 82.1137 53.9278 81.8142C52.3883 80.5622 50.6105 78.2323 49.5211 81.7349C48.8554 83.9136 49.1126 86.2587 48.9576 88.532C48.7041 92.167 48.4166 95.7981 48.2199 99.4369C48.1254 101.196 43.3141 101.612 45.247 103.166C49.6573 106.722 47.403 108.575 43.8437 110.886C43.1855 111.31 44.0404 113.398 44.7553 114.514C47.3576 118.584 47.4674 118.565 43.8816 121.084C42.5729 122.007 40.7345 122.665 39.9024 123.769C39.1761 124.738 38.7753 126.833 39.5091 127.287C43.0911 129.522 42.2663 132.201 41.9789 134.833C41.6498 137.931 41.0937 141.014 40.6437 144.089C33.6726 146.892 40.5114 150.008 40.6173 152.996C40.6589 154.067 39.2707 155.372 38.0263 156.109C36.6381 156.93 36.6344 157.146 37.9847 158.148C41.6688 160.887 41.003 163.709 38.3288 166.534C36.7288 168.225 35.9043 170.471 33.9071 171.78C29.9545 174.348 36.3128 175.162 35.3975 177.053C35.0117 177.847 35.0685 178.993 34.3309 179.413C30.9229 181.354 29.8712 183.275 33.2905 186.082C34.3043 186.914 34.5313 188.555 34.4329 189.773C34.1757 192.935 33.6311 195.946 37.5421 198.518C38.779 199.339 36.642 202.044 34.2855 202.123C31.4373 202.218 29.7124 202.619 29.72 204.964C29.7276 206.325 29.9166 207.793 29.3832 209.03C28.3506 211.576 31.6793 212.786 32.3034 214.81C25.65 218.369 29.6821 224.027 28.1691 228.604C27.144 231.725 30.0679 232.319 33.4872 232.568C34.0849 232.614 35.2877 234.24 35.0078 234.732C33.491 237.406 31.6036 239.952 29.841 242.539C23.1876 242.384 22.9116 245.595 22.8435 249.438C22.7263 256.265 21.9319 263.066 21.5688 269.89C21.4364 272.345 19.5905 272.625 16.8369 272.564C14.9041 272.53 13.4288 273.294 13.7277 275.045C15.5395 275.072 17.1622 275.454 16.5381 277.061C16.3717 277.5 14.5864 277.553 13.5424 277.787C12.8275 279.478 15.2332 280.099 15.846 281.286C16.4587 282.474 17.1472 284.448 16.436 284.902C11.5189 288.087 11.583 290.996 15.0629 295.421C17.1848 298.126 16.2922 302.022 18.8454 305.256C20.0255 306.761 19.8061 309.825 16.5154 311.156C14.957 311.784 14.7527 312.291 15.895 313.086C16.777 313.725 17.6113 314.428 18.3915 315.189C23.112 319.546 22.7414 322.466 15.9103 324.327C13.1907 325.065 10.1987 325.265 8.27725 326.975C7.29872 327.891 6.61961 329.082 6.32915 330.39C6.21946 330.856 7.56224 331.555 8.2431 332.145C8.67496 331.804 9.14298 331.511 9.63879 331.272C14.6619 329.433 15.9593 329.664 19.6661 333.734C20.5247 334.683 20.5171 336.242 20.2788 337.433C20.1805 337.902 18.3991 338.375 17.3324 338.42C15.5055 338.492 13.6105 338.057 11.7911 338.175C11.0233 338.224 10.3348 339.086 9.76742 339.661C10.0251 340.119 10.4426 340.467 10.9401 340.637C13.4706 340.8 15.7779 341.223 17.1245 343.039C18.002 344.249 18.5957 344.17 19.8061 343.141C21.7881 341.469 23.7209 341.133 23.8496 344.159C24.0084 348.1 23.7134 348.236 19.0875 349.617C16.9807 350.248 15.0742 351.202 13.0089 351.913C11.5224 352.416 8.91651 352.472 8.57986 353.217C7.84229 354.84 8.12598 356.78 8.27725 358.589C8.29994 358.846 10.282 359.481 10.6754 359.269C13.1 357.949 15.1348 356.164 17.7371 355.135C18.7319 354.738 21.1035 355.695 22.4728 356.451C23.0969 356.796 23.305 358.411 22.7831 358.925C20.7254 360.983 18.5844 362.708 14.5031 363.196C9.25682 363.82 6.51079 366.747 7.18407 370.946C7.67203 373.953 5.32691 375.731 3.16335 377.872C1.96052 379.074 2.53914 381.476 6.14003 381.703C6.75654 381.745 7.81963 381.658 7.92554 381.847C9.77136 385.1 11.447 388.394 15.3354 390.77C15.7737 391.082 16.1871 391.427 16.5721 391.803C15.7967 392.283 15.1196 392.93 14.2043 393.217C12.6459 393.679 9.59349 393.766 9.52919 394.253C8.77267 400.131 8.58741 406.066 7.94435 411.959C7.70229 414.221 11.1859 415.004 11.2237 416.547C11.2767 418.643 12.4417 421.154 9.58599 422.875C8.45123 423.564 6.26495 424.252 8.71601 425.705C10.3916 426.692 11.0535 428.663 14.3026 428.084C14.3442 427.989 14.3443 427.868 14.4123 427.815C15.0175 427.331 15.8762 427.01 15.4488 427.823C17.0299 426.998 17.7787 427.49 17.6917 427.584C17.1975 428.196 16.5885 428.705 15.8988 429.082C15.5614 429.189 15.201 429.198 14.8587 429.109C13.6672 431.405 11.4432 432.048 9.9945 432.944C7.50943 434.484 5.84511 435.535 9.18883 437.903C10.6753 438.958 10.8114 441.039 11.6322 442.654C11.8478 443.059 12.8578 443.592 12.7746 443.683C12.2337 444.269 11.621 445.003 10.7813 445.222C5.22108 446.675 3.99175 448.607 6.37846 452.651C7.07443 453.831 8.8559 454.448 8.8332 456.157C8.79536 458.57 7.6304 460.083 3.50754 461.271C2.97798 461.422 2.08911 461.502 1.99836 461.759C1.37985 463.404 0.896605 465.097 0.553409 466.82C0.269751 468.405 1.50283 469.479 3.61722 469.483C6.64321 469.483 7.39975 471.752 9.43473 472.433C10.2442 472.698 12.139 470.296 13.5045 470.36C16.3602 470.493 19.6965 469.653 22.1135 471.866C23.1196 472.781 24.0727 474.226 26.0207 472.603C27.2197 471.609 28.8614 470.905 30.0907 469.933C31.7777 468.594 33.7938 469.256 33.5744 470.489C32.9995 473.916 36.8726 475.209 38.8092 477.418C44.3732 477.15 44.464 479.654 44.203 482.699C44.1047 483.811 44.9936 485.759 46.0036 486.05C48.3532 486.677 50.8087 486.799 53.2091 486.409C54.2266 486.232 54.4232 484.204 55.2478 483.153C55.713 482.566 57.3168 481.78 57.4416 481.867C58.8222 482.808 59.9835 483.932 61.2771 484.946C63.7433 486.943 60.2217 486.856 59.5673 487.722C59.0038 488.46 57.8312 488.951 56.8818 489.5C55.4483 490.336 54.1773 491.266 56.4392 492.333C57.3811 492.775 59.5863 492.968 59.9531 492.601C63.085 489.326 65.3621 491.391 68.2406 493.104C69.0424 493.581 71.414 492.632 73.0405 492.276C73.9634 492.072 75.5748 491.444 75.6239 491.508C78.4192 495.166 83.2192 494.148 87.2664 494.496C95.8904 495.245 104.545 495.692 113.176 496.357C116.894 496.649 120.386 496.993 123.196 494.553C123.692 494.126 127.262 494.708 127.848 495.461C131.056 499.561 139.188 496.058 141.628 500.919C144.09 498.283 148.383 499.625 151.311 498.74C155.641 497.363 160.161 496.673 164.705 496.694C168.529 493.074 174.343 494.432 178.239 495.673C181.987 496.864 185.149 499.134 189.639 498.888C192.336 502.061 196.519 502.197 200.873 502.481C205.226 502.765 209.311 503.234 212.591 500.537C213.045 500.166 215.431 500.412 215.995 500.915C218.117 502.825 219.346 503.767 222.819 501.838C225.323 500.446 229.725 500.817 232.585 503.283C233.799 504.338 235.066 505.401 236.311 506.456C239.072 508.794 241.701 508.193 243.936 506.305C245.169 505.269 245.687 505.235 246.656 506.506C247.2 507.217 248.278 507.712 249.11 508.302C252.257 504.467 254.493 508.457 257.262 508.926C261.543 509.569 265.865 509.891 270.194 509.891C278.436 510.031 287.06 512.815 294.769 508.881C298.336 509.346 302.651 509.04 305.265 510.489C307.761 511.893 310.534 512.735 313.39 512.955C317.237 513.344 320.516 513.235 323.326 510.939C323.92 510.458 326.696 510.685 328.175 512.142C331.322 515.243 335.328 515.285 339.413 513.545C344.561 511.362 349.611 511.964 354.46 514.332C356.771 515.523 359.303 516.229 361.898 516.405C364.493 516.581 367.096 516.225 369.548 515.357C374.643 513.689 379.738 513.783 384.561 516.684C388.343 518.954 391.959 519.12 396.006 516.896C398.647 515.428 399.365 515.519 402.123 517.377C404.009 518.693 406.235 519.435 408.534 519.514C421.5 520.336 434.46 521.227 447.414 522.188C450.527 522.418 453.428 522.702 455.735 520.675C456.291 520.179 458.145 519.99 458.992 520.3C460.543 520.875 461.829 522.623 463.157 522.627C465.112 522.63 466.973 521.027 468.94 521.011C473.237 520.974 477.571 521.503 481.895 521.802C485.594 522.059 489.569 521.738 492.936 522.706C497.993 524.155 499.862 519.865 504.643 520.471C513.807 521.632 523.135 521.821 532.376 522.619C533.998 522.864 535.511 523.587 536.722 524.696C537.902 525.785 538.189 525.8 539.517 524.866C540.67 524.06 542.497 523.617 544.124 523.421C546.378 523.133 548.833 524.264 551.031 522.763C552.169 521.98 554.102 521.53 555.725 521.503C558.028 521.469 560.615 521.295 562.37 523.179C563.076 523.721 563.899 524.09 564.772 524.257C567.587 521.571 569.255 523.323 571.55 525.044C572.307 525.611 574.974 525.221 576.43 524.749C582.747 522.683 582.663 522.774 589.128 525.668C590.523 526.307 593.398 526.973 593.897 526.541C596.708 524.102 600.259 524.771 603.906 524.658C608.149 524.529 610.219 527.567 613.339 527.933C616.46 528.3 619.754 526.579 623.087 526.182C624.656 525.997 626.589 526.606 628.151 527.169C629.713 527.733 630.878 528.981 632.471 529.416C635.414 530.21 636.866 528.221 638.409 527.033C640.214 525.645 641.356 523.792 642.786 522.135C644.45 524.253 647.188 525.078 650.203 525.603C650.687 525.687 650.96 526.36 651.47 526.606C657.238 529.28 659.36 529.306 664.16 526.435C665.114 525.913 666.03 525.326 666.903 524.677C669.199 522.827 669.811 525.051 670.746 525.743C673.371 527.702 676.578 526.628 679.449 527.169C682.437 523.992 686.908 525.006 691.092 525.278L694.795 525.532C700.347 525.917 705.976 525.963 711.437 526.78C717.1 527.623 721.813 526.163 726.794 525.04C728.01 524.8 729.267 524.895 730.433 525.312C731.965 525.944 733.255 527.688 734.567 527.684C736.534 527.684 738.384 526.091 740.377 526.035C744.046 525.921 747.772 526.492 751.475 526.685C754.414 526.84 757.296 527.544 760 525.679C763.412 523.319 763.624 528.864 766.952 527.805C767.444 527.646 768.469 528.02 768.696 527.808C769.241 527.302 770.001 526.36 769.721 526.027C768.734 524.851 767.304 523.905 766.102 522.801C763.087 520.043 763.204 520.077 766.446 516.17C767.282 515.168 767.936 513.643 767.501 512.595C766.998 511.389 765.148 510.47 763.949 509.384C761.26 506.937 761.283 506.937 766.582 505.662C767.119 505.534 767.97 504.947 767.894 504.834C767.463 504.176 766.873 503.147 766.196 503.06C763.14 502.674 760.023 502.659 756.963 502.292C755.923 502.167 754.122 501.35 754.141 500.938C754.542 494.697 748.736 496.289 744.25 496.456C743.808 496.475 743.475 497.276 743.883 498.736C744.08 498.747 744.276 498.769 744.47 498.801C745.241 498.945 745.824 500.042 746.297 500.756C746.516 501.097 746.278 501.592 744.492 500.291C745.676 502.655 745.116 503.313 744.553 503.968C743.891 503.026 742.696 502.042 742.73 501.138C742.741 500.802 742.435 500.193 742.355 499.66C736.905 498.241 732.487 498.46 729.616 494.999C729.234 494.542 727.241 494.893 726.049 494.663C724.392 494.315 721.362 493.449 721.404 493.316C722.179 490.914 724.888 491.905 726.976 492.034C734.976 492.522 742.968 493.365 750.957 493.562C755.216 493.668 757.784 495.056 760.087 497.397C760.844 498.154 761.585 499.009 762.603 499.421C763.106 499.622 764.982 498.918 764.967 498.615C764.849 495.79 766.222 494.53 770.311 494.958C775.21 495.468 780.146 495.677 785.067 496.021C788.138 496.233 791.289 496.804 794.266 496.55C796.997 496.316 799.501 494.614 802.175 494.587C805.889 494.557 808.821 494.296 812.168 492.726C814.343 491.709 818.95 492.079 821.961 494.803C824.106 496.736 825.161 496.618 828.039 495.147C830.816 493.732 833.025 492.9 835.782 495.173C836.519 495.741 837.333 496.2 838.199 496.539C842.765 492.881 851.653 496.301 855.417 491.062C856.684 489.303 860.077 489.382 861.469 491.16C863.591 493.857 868.281 492.828 870.418 495.495C871.466 496.8 873.251 496.248 873.262 494.27C873.285 489.655 875.282 486.538 882.14 486.201C884.084 486.111 885.548 485.441 885.249 483.69C881.527 483.576 880.385 479.476 876.061 480.161C876.035 480.187 875.097 478.478 875.343 478.345C877.62 477.135 879.053 475.247 882.635 475.107C886.115 474.964 889.565 473.178 889.735 470.323C889.939 466.797 890.722 464.35 896.404 464.812C898.238 462.788 901.752 463.397 904.022 462.391C907.554 460.825 910.546 458.567 913.542 456.433C914.794 455.545 915.244 455.405 916.224 456.399C917.597 457.772 919.636 459.917 920.468 456.475C920.959 454.47 922.574 453.551 924.159 452.329C928.173 449.232 933.967 447.461 936.43 443.229C934.588 443.104 932.742 443.006 930.9 442.843C924.848 442.313 924.307 441.281 927.685 436.98C928.127 436.417 928.804 435.384 928.524 435.172C926.478 433.595 925.23 431.53 921.565 431.064C916.912 430.474 919.409 427.524 918.21 425.485C918.145 425.466 918.119 425.448 918.187 425.463C916.814 424.846 915.675 423.927 915.861 423.719C917.279 422.164 918.259 423.363 919.049 424.313C919.291 424.6 919.25 425.27 918.947 425.466C918.921 425.493 918.868 425.485 918.826 425.497C921.364 425.765 922.245 424.854 922.873 423.621C924.451 420.53 927.223 417.985 929.576 415.246C935.681 416.23 934.44 412.84 935.045 410.329C935.329 409.168 936.422 407.923 937.655 407.189C939.134 406.3 939.145 405.2 939.83 400.476C939.573 400.67 939.367 400.925 939.229 401.216C939.091 401.508 939.027 401.829 939.04 402.151C939.059 402.511 932.659 401.414 932.458 400.714C932.212 399.863 931.615 398.592 932.14 398.18C938.631 393.073 936.532 386.73 936.044 380.614C931.664 378.186 937.065 377.225 937.042 375.833C936.978 372.039 939.467 371.85 941.366 381.344C940.833 381.926 940.512 382.671 940.454 383.458C940.304 384.377 940.368 385.318 940.64 386.208C940.912 387.098 941.386 387.914 942.024 388.591C942.122 388.145 942.209 387.725 942.315 387.256L942.084 388.652C942.386 389 942.712 389.326 943.06 389.627C944.819 391.129 943.817 393.039 941.502 394.121C941.385 394.178 941.309 394.231 941.207 394.287C941.094 395.082 941.003 395.778 940.919 396.421C941.203 396.647 941.5 396.855 941.808 397.045C943.2 397.922 943.283 398.354 942.107 399.069C941.631 399.349 941.075 399.64 940.564 399.939C940.428 402.201 940.749 402.25 941.078 402.284C946.158 402.825 946.162 402.828 944.365 405.419C941.373 409.728 941.544 411.267 945.72 414.875C946.478 415.419 947.343 415.794 948.258 415.976C948.53 416.044 949.464 415.413 949.438 415.114C949.146 411.797 950.364 409.194 953.591 406.785C954.809 405.877 954.839 402.662 953.636 401.663C949.944 398.706 950.822 397.087 953.84 393.909ZM947.153 207.6C947.584 208.189 947.931 208.834 948.185 209.518C948.235 209.749 947.395 210.067 946.964 210.339C946.531 209.751 946.184 209.106 945.931 208.421C945.878 208.194 946.71 207.869 947.153 207.6ZM125.605 55.8818C124.713 56.1768 123.37 56.99 121.959 57.0165C119.175 57.0694 117.795 55.5678 118.487 53.4685C118.933 52.1219 119.962 51.2823 122.262 51.5773C125.046 51.9329 126.335 53.1243 125.605 55.8818ZM21.081 410.352C20.485 410.364 19.8892 410.316 19.3031 410.208C18.2743 409.898 16.6099 409.565 16.4472 409.062C16.069 407.927 15.9971 406.486 16.6893 405.521C17.4684 404.447 19.3636 403.868 20.5097 402.904C21.6558 401.939 22.1021 402.068 23.1045 403.229C24.678 405.015 27.874 406.259 26.8188 408.842C26.5869 409.259 26.2719 409.624 25.8933 409.915C25.5146 410.205 25.0804 410.414 24.6175 410.529C23.6227 410.775 22.2762 410.435 21.081 410.352ZM38.6012 443.721C38.3932 444.019 37.7351 444.133 37.2812 444.329C36.8472 444.013 36.4397 443.661 36.0631 443.278C32.935 439.439 28.1351 437.96 22.503 437.434C22.0415 437.389 21.4024 435.895 21.4591 435.119C21.5158 434.344 22.3291 432.963 22.836 432.986C27.5867 433.054 32.0766 432.74 36.0935 430.72C36.642 430.444 38.6693 431.027 39.1912 431.586C40.7837 433.376 39.6678 436.05 42.7732 437.438C41.4002 439.522 40.0462 441.64 38.6012 443.721ZM56.6321 390.354C56.5338 390.452 55.7131 390.38 55.4408 390.206C53.6555 389.056 53.837 386.151 55.8719 385.818C56.4771 385.72 57.6346 387.173 58.3836 387.793C57.8443 388.676 57.2596 389.531 56.6321 390.354ZM58.1451 368.461C58.0468 368.559 57.226 368.487 56.9537 368.313C55.1684 367.163 55.3462 364.255 57.3812 363.922C57.9901 363.827 59.1475 365.28 59.8965 365.893C59.3588 366.779 58.7741 367.637 58.1451 368.461ZM76.5771 210.206C76.179 210.312 75.7568 210.282 75.3781 210.119C73.7252 208.527 74.0316 204.234 75.8775 202.895C76.0741 202.751 77.0273 202.857 77.0727 202.97C77.6136 204.169 78.041 205.391 78.5403 206.708C77.8633 207.944 77.2731 209.094 76.5771 210.206ZM91.8961 195.266C92.3285 195.853 92.6761 196.499 92.9287 197.183C92.9817 197.41 92.142 197.728 91.7108 198L90.5269 196.158C91.0564 195.825 91.4725 195.53 91.9037 195.258L91.8961 195.266ZM82.8976 271.637C83.3061 271.985 84.074 272.398 83.9946 272.621C83.6493 273.258 83.2194 273.846 82.7162 274.368L81.4679 273.302C81.9331 272.761 82.421 272.197 82.9051 271.63L82.8976 271.637ZM73.1312 335.644C73.7478 334.869 76.1119 334.494 77.6438 334.619C79.4292 334.77 80.7189 335.841 80.2272 337.467C80.1385 337.903 80.1029 338.347 80.1213 338.791C80.057 339.673 80.284 340.664 79.8339 341.409C79.5502 341.881 77.8027 342.441 77.4926 342.237C76.1006 341.36 74.6859 340.369 73.8915 339.196C73.1805 338.129 72.5033 336.446 73.1388 335.637L73.1312 335.644ZM74.2586 388.886L73.0065 387.823C73.8319 387.513 74.6858 387.285 75.5559 387.142C75.8623 387.108 76.32 387.748 76.7134 388.08L74.2586 388.886ZM74.0807 380.047C74.5497 379.502 75.0377 378.938 75.5218 378.371C75.9303 378.719 76.7019 379.135 76.6187 379.354C76.278 379.995 75.8475 380.583 75.3402 381.102L74.0807 380.047ZM80.1554 362.171C76.528 362.681 74.4931 361.229 75.1172 358.426C75.2798 357.704 76.3729 357.125 77.05 356.493C77.4783 356.791 77.8728 357.135 78.2264 357.518C79.2249 358.887 81.9936 359.477 81.6494 361.425C81.0896 361.698 80.6811 362.091 80.1629 362.163L80.1554 362.171ZM229.748 202.554C230.058 202.524 230.52 203.16 230.909 203.496C230.084 203.803 229.232 204.032 228.364 204.181C228.057 204.207 227.596 203.572 227.203 203.239C228.029 202.927 228.884 202.695 229.756 202.547L229.748 202.554ZM217.062 421.665C217.902 421.931 218.715 422.276 219.49 422.694L218.102 423.575L215.783 422.437C216.222 422.157 216.755 421.593 217.069 421.657L217.062 421.665ZM210.817 197.981C211.245 198.279 211.64 198.623 211.993 199.006C212.992 200.376 215.764 200.962 215.416 202.914C214.864 203.209 214.456 203.602 213.945 203.674C210.31 204.185 208.279 202.728 208.903 199.925C209.069 199.199 210.151 198.632 210.824 197.974L210.817 197.981ZM202.696 46.1798C203.104 46.5278 203.876 46.9362 203.793 47.1556C203.451 47.7955 203.022 48.3849 202.518 48.9068L201.266 47.844C201.747 47.3107 202.219 46.732 202.703 46.1722L202.696 46.1798ZM192.907 26.2538L194.159 27.3167C193.69 27.8613 193.202 28.4248 192.718 28.9922C192.313 28.6404 191.538 28.2283 191.621 28.0089C191.97 27.3651 192.405 26.772 192.914 26.2462L192.907 26.2538ZM190.83 56.3584L192.079 57.425C191.609 57.9697 191.125 58.5294 190.637 59.0929C190.248 58.7639 189.457 58.3366 189.544 58.1135C189.888 57.4665 190.324 56.8728 190.838 56.3509L190.83 56.3584ZM177.334 170.627C177.323 171.992 177.478 173.418 177.005 174.693C175.772 177.999 179.063 179.776 181.605 181.615C182.547 182.299 185.153 182.447 186.397 181.989C188.5 181.217 189.968 179.591 191.992 178.664C193.357 178.055 195.464 177.507 196.829 177.874C199.761 178.657 198.751 180.748 198.902 182.466C199.205 185.885 195.074 186.657 192.778 188.506C190.055 190.7 189.93 191.914 192.714 194.138C194.333 195.432 195.71 196.65 198.388 197.278C201.875 198.102 202.276 200.41 200.06 202.21C196.156 205.357 193.966 205.195 191.008 201.344C190.463 200.633 190.444 199.691 190.293 198.844C190.028 197.346 189.177 196.404 186.915 196.306C183.848 196.166 180.716 196.158 177.743 195.598C175.568 195.171 175.163 192.565 172.081 192.448C170.98 192.406 168.132 193.658 168.453 190.931C168.835 187.773 169.009 184.595 169.096 181.414C169.123 180.631 168.442 179.799 168.086 178.99C167.197 179.258 166.082 179.368 165.458 179.833C162.863 181.777 159.727 180.487 156.845 180.412C156.126 180.374 155.438 179.338 154.723 178.751C155.184 178.456 155.706 177.866 156.077 177.927C160.408 178.626 164.296 176.591 164.86 174.606C165.125 173.627 165.689 172.755 166.475 172.113C177.111 168.777 177.346 169.299 177.342 170.619L177.334 170.627ZM167.538 171.421C169.183 170.532 171.301 170.245 173.242 169.598C171.199 170.271 169.365 170.842 167.534 171.425L167.538 171.421ZM175.511 53.06C175.81 52.9276 176.34 53.0563 176.763 53.0638C178.564 53.9943 178.435 56.6873 176.521 57.5875C176.119 57.7233 175.682 57.7168 175.284 57.5688C173.461 56.6837 173.582 53.9526 175.511 53.06ZM144.612 125.044L146.931 126.183C146.496 126.459 145.951 127.026 145.653 126.954C144.814 126.691 144.002 126.347 143.228 125.929C143.655 125.653 144.094 125.388 144.608 125.048L144.612 125.044ZM136.968 82.9793C138.432 82.8318 140.134 83.679 141.726 84.0837C141.352 84.7225 140.901 85.3132 140.384 85.8426C139.245 86.7845 137.948 87.628 136.718 88.5093C136.197 88.144 135.715 87.727 135.277 87.2647C134.161 85.6194 134.922 83.1874 136.964 82.9832L136.968 82.9793ZM123.45 81.7689C124.97 82.3438 126.301 82.5481 126.854 83.1382C127.406 83.7283 127.765 84.9955 127.307 85.5061C126.086 86.864 124.27 87.9078 122.912 89.2052C121.815 90.2492 121.229 90.2606 120.34 89.0918C119.308 87.7263 116.792 85.5438 117.129 85.2828C118.982 83.8531 120.647 81.8938 123.446 81.7728L123.45 81.7689ZM108.868 155.697C109.163 155.561 109.696 155.693 110.12 155.701C111.92 156.631 111.796 159.321 109.878 160.225C109.477 160.361 109.041 160.353 108.645 160.202C106.807 159.317 106.935 156.594 108.864 155.701L108.868 155.697ZM102.041 102.459C101.473 101.725 100.324 100.901 100.452 100.265C100.706 99.1116 101.719 98.0676 102.415 96.9783L104.348 100.197C103.372 101.165 102.703 101.812 102.037 102.463L102.041 102.459ZM100.8 165.104C100.49 165.134 100.032 164.495 99.6388 164.162C100.467 163.894 101.296 163.618 102.094 163.357L103.346 164.42C102.519 164.729 101.666 164.959 100.796 165.108L100.8 165.104ZM107.639 193.064C106.8 192.793 105.986 192.45 105.207 192.039C104.356 191.426 103.549 190.754 102.793 190.027C102.389 189.675 102.044 189.354 101.67 189.017C102.635 188.635 103.573 187.939 104.571 187.924C107.786 187.871 108.929 188.741 108.951 190.867L107.639 193.064ZM108.263 182.152C108.134 182.28 107.355 182.19 107.056 182.027C106.576 181.751 106.005 181.361 105.963 181.002C105.923 180.115 105.966 179.226 106.092 178.347C106.36 174.833 107.196 174.103 110.873 174.609C111.867 174.749 112.722 175.574 113.638 176.081C110.082 177.238 110.23 180.23 108.27 182.167L108.263 182.152ZM104.749 406.811C104.604 407.03 104.413 407.215 104.19 407.353C103.966 407.491 103.716 407.58 103.455 407.613C103.222 407.582 102.998 407.504 102.797 407.382C102.596 407.26 102.422 407.098 102.287 406.906C101.246 404.973 101.818 402.601 98.9694 401.145C98.5193 400.914 103.474 396.64 104.011 396.86C104.549 397.079 105.127 397.499 105.184 397.858C105.441 399.568 105.532 401.293 105.653 402.783C105.331 404.285 105.142 405.563 104.749 406.811ZM107.642 361.289C106.644 361.138 105.785 360.37 104.866 359.882C105.202 359.579 105.552 359.294 105.918 359.027C106.765 358.412 107.654 357.854 108.577 357.359C109.41 357.02 110.267 356.742 111.141 356.527L112.268 358.895C112.287 361.252 110.203 361.671 107.639 361.278L107.642 361.289ZM122.924 191.873C121.085 191.487 119.905 190.685 120.204 188.994C120.567 186.944 122.197 185.859 124.97 186.626C126.252 186.986 127.137 188.242 127.724 188.707C127.512 191.521 125.787 192.474 122.924 191.873ZM130.564 170.615C129.184 171.504 127.905 172.442 126.445 173.221C123.612 174.723 126.68 175.445 127.478 176.145C128.582 177.113 128.794 177.787 127.009 178.052C125.231 178.246 123.438 178.243 121.66 178.044C118.23 177.775 117.295 176.977 117.526 174.734C117.662 173.403 117.171 171.459 118.169 170.838C125.477 166.315 121.982 162.419 116.732 158.379C114.844 156.923 115.018 156.802 119.221 155.89C122.799 155.119 123.449 153.802 121.899 151.177C121.335 150.228 117.863 149.744 120.628 148.257C121.426 147.83 122.875 147.977 124.028 148.004C124.576 148.007 125.104 148.212 125.511 148.579C126.011 149.315 126.371 150.137 126.574 151.003C127.141 153.605 124.274 156.745 127.599 158.678C129.679 159.888 133.412 159.544 136.412 159.813C139.411 160.081 142.589 160.074 145.607 160.527C147.483 160.807 148.255 161.98 148.149 163.584C148.043 165.187 146.636 167.366 149.246 168.592C150.664 169.253 152.745 169.117 154.541 169.348C155.154 169.336 155.766 169.388 156.368 169.503C158.15 170.173 158.971 171.213 158.634 172.737C158.248 174.477 155.604 175.336 153.214 174.829C151.156 174.39 151.296 170.748 148.164 172.692C147.135 173.335 147.207 175.162 147.237 176.455C147.24 176.934 147.133 177.406 146.923 177.836C131.847 182.322 131.729 181.683 132.055 181.123C132.925 179.723 135.481 178.241 135.062 177.246C134.415 175.699 132.051 174.545 132.463 172.461C132.546 171.939 131.234 171.232 130.568 170.619L130.564 170.615ZM146.016 178.925C145.504 179.245 144.925 179.444 144.325 179.504C144.877 179.322 145.486 179.114 146.019 178.929L146.016 178.925ZM141.325 195.848C137.908 193.402 134.67 190.713 131.638 187.803C130.784 186.948 131.68 185.159 131.775 183.801L140.41 180.839C141.531 182.141 142.747 183.357 144.049 184.478C144.31 184.694 145.963 184.319 146.579 183.907C148.58 182.549 151.217 182.031 152.854 183.585C156.3 186.865 160.741 189.028 165.34 191.101C167.897 192.251 168.714 194.384 170.787 195.754C172.001 196.559 171.91 197.164 170.235 197.652C169.686 197.821 169.108 197.865 168.54 197.781C167.43 197.629 166.349 197.313 165.333 196.843C163.752 195.95 162.609 193.25 160.665 196.487C158.089 200.765 156.758 200.901 152.404 197.486C151.529 196.862 150.712 196.159 149.965 195.387C147.763 192.822 146.417 194.759 144.639 195.591C143.765 195.996 141.836 196.23 141.329 195.852L141.325 195.848ZM218.185 439.182C217.845 439.614 217.362 439.912 216.823 440.021C216.521 440.104 215.67 439.813 215.613 439.62C214.58 436.068 212.988 432.835 207.715 431.496C207.757 432.831 207.303 434.019 205.113 433.493C204.504 433.345 204.383 432.006 204.008 431.238C202.938 431.484 201.107 431.552 200.926 432.014C200.271 433.682 200.309 435.505 199.84 437.23C199.341 439.083 195.857 439.919 194.03 438.637C192.665 437.68 191.602 436.526 190.271 435.505C188.939 434.484 187.49 432.846 186.306 432.91C181.93 433.141 178.957 430.947 175.371 429.865C172.459 432.823 170.882 430.452 168.797 428.92C168.113 428.417 166.055 428.25 165.295 428.64C162.81 429.877 160.707 431.518 158.312 432.861C155.801 434.268 152.907 433.508 152.177 430.584C151.655 428.496 149.783 427.516 148.55 426.026C147.173 424.377 145.947 424.937 144.601 425.92C143.727 426.559 142.778 427.123 141.862 427.675C139.646 429.029 139.665 428.995 136.624 427.49C133.681 426.06 129.604 425.81 128.011 423C127.345 421.828 126.275 419.713 126.812 419.418C130.682 417.296 131.34 414.361 130.931 411.123C130.421 407.14 131.998 404.088 136.745 402.11C137.682 401.698 138.498 401.053 139.116 400.237C139.93 399.159 140.123 397.136 141.133 396.958C143.368 396.546 147.253 396.353 148.16 397.276C151.784 400.982 156.803 400.101 161.425 400.873C166.604 401.747 172.179 400.097 177.005 403.683C180.75 406.459 186.374 404.95 191.129 405.544C196.598 406.233 202.166 406.361 207.662 406.947C208.282 407.008 209.33 408.525 209.111 409.153C208.733 410.287 207.594 412.061 206.709 412.046C203.222 412.024 199.541 412.337 196.852 409.429C195.339 407.802 192.555 408.264 190.52 409.762C193.433 412.197 196.167 414.766 199.303 417.031C204.016 420.466 206.683 425.659 214.115 426.805C215.579 430.917 220.591 434.506 218.189 439.185L218.185 439.182ZM249.424 16.3965C244.674 16.0561 243.626 15.3867 244.19 12.6747C244.333 11.9484 245.411 11.347 246.054 10.6889C247.749 13.382 251.788 13.397 254.485 14.9365C254.659 15.0348 254.572 15.606 254.361 15.8178C254.014 16.2163 253.544 16.4868 253.025 16.5858C251.824 16.5862 250.623 16.5242 249.428 16.4003L249.424 16.3965ZM228.95 421.828C227.01 420.908 225.599 419.293 224.203 417.837C224.018 417.652 225.164 416.778 225.61 416.309C229.385 415.674 230.924 417.841 232.774 419.524C233.326 420.023 233.447 420.787 233.765 421.43C232.12 421.616 230.02 422.346 228.935 421.82L228.95 421.828ZM246.031 414.883C249.734 415.031 250.453 417.792 252.749 419.172C252.859 419.237 252.484 419.755 252.337 420.069C247.412 417.58 244.333 415.969 242.381 414.894C242.427 414.849 242.431 414.762 242.491 414.724C243.149 414.346 244.81 414.849 246.032 414.891L246.031 414.883ZM242.427 413.434C242.669 413.722 242.627 414.391 242.325 414.588C242.23 414.645 242.037 414.626 241.863 414.618C239.511 413.309 239.129 412.95 239.231 412.833C240.649 411.286 241.629 412.485 242.427 413.442L242.427 413.434ZM238.232 438.584C237.922 438.614 237.464 437.975 237.071 437.642C237.899 437.366 238.728 437.097 239.526 436.836L240.778 437.899C239.953 438.21 239.101 438.441 238.232 438.591L238.232 438.584ZM259.403 437.665C259.694 439.295 258.408 440.052 256.539 440.347C254.141 440.725 252.099 439.34 251.97 437.351C251.83 434.941 254.066 431.722 247.813 431.439C246.879 431.397 245.865 430.52 245.094 429.892C244.806 429.657 245.109 429.03 245.135 428.579C245.294 426.333 245.873 424.059 245.464 421.85C245.169 420.247 241.599 419.543 242.17 417.323C242.329 416.725 242.147 415.961 242.208 415.386C251.149 420.629 249.95 421.147 249.75 421.816C249.394 422.974 249.273 424.721 250.173 425.395C251.709 426.537 255.06 426.696 255.904 427.895C256.887 429.294 256.184 431.291 258.355 432.615C260.806 434.09 259.096 435.982 259.403 437.672L259.403 437.665ZM276.692 420.277C276.987 420.141 277.521 420.273 277.944 420.281C279.745 421.211 279.62 423.9 277.702 424.804C277.301 424.941 276.865 424.933 276.469 424.782C274.635 423.9 274.763 421.177 276.707 420.269L276.692 420.277ZM269.237 430.221C268.805 429.635 268.459 428.99 268.208 428.307C268.151 428.076 268.995 427.762 269.426 427.49L270.61 429.332L269.237 430.221ZM287.06 439.632C281.954 439.783 276.235 437.453 272.119 441.372C271.682 441.059 271.276 440.705 270.905 440.316C269.767 438.86 271.03 435.902 272.781 435.974C275.803 436.122 278.825 436.375 281.851 436.587C283.663 436.712 285.49 436.776 287.283 437.003C287.748 437.06 288.547 437.744 288.46 437.937C288.168 438.607 287.597 439.639 287.026 439.666L287.06 439.632ZM317.282 428.247C319.812 425.247 325.282 426.677 327.986 424.207C328.411 423.903 328.866 423.643 329.344 423.431C327.426 426.718 325.83 429.434 324.453 431.734C324.001 431.876 323.606 432.159 323.326 432.541C323.045 432.924 322.894 433.386 322.895 433.86C322.899 433.998 322.91 434.135 322.929 434.272C321.616 436.439 320.576 438.1 319.733 439.397C318.848 439.382 318.78 438.837 318.844 437.797C318.957 435.248 320.883 432.362 316.877 430.225C315.538 429.521 316.457 429.215 317.248 428.281L317.282 428.247ZM303.427 420.36C304.183 422.713 304.879 423.923 304.841 425.103C304.822 425.78 303.631 426.404 302.962 427.051C302.394 426.317 301.297 425.538 301.369 424.861C301.471 423.715 302.322 422.614 303.404 420.383L303.427 420.36ZM316.041 443.982C312.8 440.483 309.687 440.653 305.844 443.376C304.213 444.522 299.69 442.911 300.234 441.746C302.05 437.903 298.203 435.116 297.08 431.844C297.037 431.627 297.045 431.403 297.103 431.189C297.162 430.976 297.269 430.779 297.416 430.614C298.279 429.532 299.118 429.502 300 430.3C301.562 431.719 303.552 432.944 304.792 434.488C307.682 438.081 311.865 439.185 317.055 439.042C319.4 438.966 319.086 439.779 318.882 440.672C317.043 443.403 316.529 443.705 316.018 444.004L316.041 443.982ZM330.078 442.639C326.356 442.82 325.183 438.712 321.144 439.242C321.999 438.024 322.801 436.942 323.568 435.978C323.837 436.238 324.154 436.443 324.502 436.581C324.85 436.718 325.222 436.786 325.596 436.78C329.371 436.916 330.528 439.269 332.673 440.785C332.95 441.044 333.14 441.382 333.217 441.754C332.17 442.113 331.141 442.612 330.055 442.661L330.078 442.639ZM334.322 430.293C333.604 431.02 332.686 431.519 331.685 431.726C330.562 431.927 329.25 431.613 328.017 431.537C327.888 431.53 327.767 431.53 327.642 431.518C333.096 426.594 335.007 429.578 334.299 430.315L334.322 430.293ZM346.282 443.713C343.871 443.703 341.462 443.551 339.069 443.255C338.622 443.21 337.832 442.48 337.926 442.287C338.248 441.663 338.759 440.797 339.47 440.653C340.544 440.434 341.834 440.747 343.044 440.823C344.25 440.853 345.454 440.95 346.649 441.114C347.122 441.201 347.893 441.89 347.795 442.079C347.451 442.733 346.83 443.732 346.259 443.736L346.282 443.713ZM352.833 433.228C350.617 433.455 349.773 432.332 349.213 430.977C348.718 429.786 348.616 428.216 347.526 427.52C346.15 426.628 342.658 428.001 342.863 425.255C342.912 424.585 350.62 424.161 351.192 424.929C353.007 427.373 354.407 429.983 355.969 432.528C354.932 432.835 353.877 433.076 352.811 433.251L352.833 433.228ZM397.179 437.865C397.873 437.405 398.609 437.011 399.376 436.689C398.745 437.529 398.058 438.325 397.319 439.072C397.258 439.049 397.149 439.045 397.111 439.015C396.99 438.85 396.929 438.648 396.937 438.444C396.946 438.239 397.023 438.043 397.156 437.888L397.179 437.865ZM413.281 16.7142C413.85 16.531 414.469 16.5814 415.002 16.8542C415.293 17.1001 415.009 17.7167 414.975 18.1668C415.547 17.694 416.008 17.3158 416.492 16.9224C415.963 16.9224 415.369 16.9565 415.138 16.7635C415.007 16.5872 414.941 16.3707 414.952 16.1513C414.963 15.9318 415.05 15.7231 415.198 15.5607C417.063 14.2255 419.045 12.9774 420.986 11.7026C420.369 12.8563 419.771 13.8623 419.189 14.7852C422.109 12.6217 422.453 12.8146 422.586 13.0907C423.785 15.6741 421.909 17.0813 417.706 16.9565C414.034 21.9833 411.189 22.9593 409.343 24.3815C408.632 23.8368 407.422 23.3298 407.301 22.7398C406.575 19.3582 410.943 18.5979 413.243 16.7521L413.281 16.7142ZM385.238 435.433C382.374 433.954 379.246 432.468 379.186 429.502C379.167 428.765 379.832 427.585 380.562 427.414C385.298 426.31 388.994 427.463 392.602 430.89C392.98 431.269 393.396 431.571 393.797 431.912C393.71 432.982 386.425 436.107 385.2 435.471L385.238 435.433ZM391.028 441.111C390.571 440.929 390.184 440.606 389.924 440.188C390.484 439.628 391.146 438.807 391.902 438.754C393.627 438.722 395.352 438.835 397.058 439.091C397.078 439.158 397.09 439.228 397.092 439.299C394.471 441.829 392.746 441.678 390.991 441.148L391.028 441.111ZM398.68 439.117C398.443 439.201 398.189 439.23 397.939 439.2C399.985 437.154 400.549 437.536 400.473 437.619C399.97 438.246 399.348 438.768 398.643 439.155L398.68 439.117ZM432.269 17.6372L429.946 16.5026C430.377 16.2227 430.922 15.6554 431.221 15.7273C432.062 15.9912 432.875 16.3356 433.649 16.756C433.237 17.0472 432.791 17.3044 432.269 17.6372ZM455.38 23.6967C455.315 24.1998 453.515 24.9715 452.694 24.8693C451.117 24.6386 448.409 23.8595 448.367 23.2959C448.227 21.4689 448.2 19.7857 445.984 18.598C444.433 17.7658 444.361 17.1342 446.105 16.7219C449.759 15.8368 453.39 14.982 457.123 14.3579C457.778 14.2557 458.882 15.3148 459.798 15.8519C455.054 17.3952 455.773 20.6859 455.38 23.6967ZM432.22 441.511L430.971 440.445C431.44 439.9 431.921 439.337 432.409 438.773C432.798 439.102 433.589 439.53 433.502 439.753C433.159 440.396 432.727 440.988 432.22 441.511ZM460.962 25.52C460.532 24.9309 460.185 24.2857 459.93 23.6023C459.881 23.3716 460.717 23.0576 461.152 22.7814C461.584 23.3691 461.932 24.0146 462.184 24.6991C462.233 24.9298 461.394 25.2401 460.962 25.52ZM468.528 14.5281C468.221 14.5545 467.76 13.9192 467.37 13.5825C468.198 13.314 469.023 13.0416 469.825 12.7768L471.073 13.8434C470.248 14.1499 469.395 14.3792 468.528 14.5281ZM450.928 440.052C450.498 439.464 450.152 438.82 449.899 438.138C449.846 437.903 450.686 437.593 451.121 437.317L452.304 439.159L450.928 440.052ZM462.93 435.781L464.182 436.844C463.356 437.151 462.504 437.38 461.636 437.529C461.326 437.559 460.868 436.92 460.475 436.587C461.303 436.311 462.131 436.042 462.93 435.781ZM459.801 452.829C461.22 451.274 462.196 452.469 462.99 453.423C463.228 453.714 463.194 454.383 462.892 454.58C462.812 454.66 462.604 454.618 462.43 454.61C460.229 453.476 459.669 452.976 459.805 452.825L459.801 452.829ZM465.01 457.22C464.24 456.874 463.532 456.404 462.914 455.828C462.803 455.671 462.753 455.479 462.774 455.287C465.63 456.872 465.127 457.277 465.01 457.22ZM462.922 454.868C462.967 454.822 462.956 454.712 463.009 454.682C463.52 454.51 464.077 454.543 464.563 454.777C465.178 455.278 465.741 455.841 466.243 456.456C464.885 455.832 463.799 455.306 462.926 454.871L462.922 454.868ZM531.316 21.6164C531.01 21.6429 530.548 21.0074 530.155 20.6746C530.98 20.3655 531.832 20.1363 532.701 19.99C533.011 19.9597 533.472 20.5951 533.862 20.9317C533.036 21.2383 532.184 21.4675 531.316 21.6164ZM542.456 39.0045L540.133 37.8621C540.568 37.586 541.113 37.0186 541.412 37.0904C542.253 37.3543 543.066 37.6991 543.84 38.1194C543.409 38.3918 542.974 38.6678 542.456 39.0045ZM638.084 38.2783C638.379 38.1421 638.912 38.2745 639.332 38.2783C641.14 39.2088 641.008 41.898 639.094 42.8058C638.692 42.9403 638.257 42.9323 637.861 42.7832C636.022 41.8905 636.155 39.1709 638.084 38.2783ZM566.724 460.908C564.753 461.366 563.225 461.774 561.977 462.115C566.52 461.612 566.357 462.652 565.805 463.582C565.139 464.762 564.492 464.373 563.301 463.416C562.752 462.973 562.25 462.553 561.784 462.141C557.877 463.219 557.151 463.658 556.931 463.544C554.772 462.429 556.349 461.751 557.612 461.199C558.129 461.039 558.687 461.081 559.174 461.317C559.435 461.54 559.174 462.073 559.155 462.5C560.161 462.326 560.986 462.183 561.773 462.092C560.199 460.708 559.208 459.527 559.416 458.661C559.991 456.346 561.096 455.703 563.853 456.07C565.858 456.335 566.86 457.148 566.879 458.635C566.887 459.089 566.834 459.527 566.739 460.893L566.724 460.908ZM586.972 448.626C586.745 448.399 586.643 447.79 586.756 447.753C587.694 447.412 588.719 446.879 589.684 446.943C593.398 447.193 593.753 447.692 593.451 451.369C593.417 451.796 593.602 452.405 593.3 452.594C593.152 452.689 592.88 452.681 592.505 452.632C588.946 450.45 587.917 449.527 586.975 448.623L586.972 448.626ZM595.422 460.352C594.117 460.825 592.165 460.462 590.52 460.322C590.263 460.255 590.026 460.129 589.826 459.954C589.626 459.78 589.47 459.561 589.37 459.316C589.313 459.07 590.103 458.771 590.414 458.438C591.355 457.421 592.464 456.448 593.103 455.317C593.261 454.982 593.339 454.614 593.33 454.243C598.448 458.582 597.139 459.732 595.425 460.348L595.422 460.352ZM593.364 453.158C593.36 452.988 593.349 452.81 593.36 452.647C594.79 453.381 596.28 454.054 597.623 454.868C598.627 455.596 599.578 456.394 600.471 457.254C597.385 455.522 595.115 454.236 593.368 453.154L593.364 453.158ZM656.872 35.846C655.408 35.0403 655.359 34.2498 657.155 34.0493C658.695 33.864 660.896 33.8565 661.891 34.526C662.886 35.1955 662.92 36.8333 663.048 37.151C662.916 39.0082 662.969 39.9159 662.742 40.7708C662.624 40.992 662.456 41.1826 662.251 41.3271C662.046 41.4716 661.81 41.5661 661.562 41.603C660.684 41.3987 659.16 40.8353 659.205 40.5932C659.549 38.6755 659.077 37.0677 656.872 35.846ZM651.36 178.918C650.82 177.741 649.965 176.569 649.874 175.389C649.821 174.746 651.073 174.091 651.724 173.456L653.709 176.009C653.017 176.86 652.174 177.87 651.36 178.918ZM662.712 184.762C661.592 184.83 660.389 185.132 659.372 184.902C658.354 184.671 657.541 183.926 656.633 183.404C657.601 183.01 658.521 182.379 659.553 182.299C660.586 182.22 661.777 182.602 662.829 182.927C663.324 183.082 663.642 183.574 664.043 183.914C663.601 184.198 663.158 184.482 662.696 184.747L662.712 184.762ZM698.044 49.7541L695.725 48.6156C696.156 48.3357 696.701 47.7684 697 47.8403C697.84 48.1042 698.654 48.4486 699.428 48.869C698.997 49.1413 698.566 49.4213 698.044 49.7541ZM809.876 174.924C810.571 174.462 811.308 174.067 812.077 173.743C811.291 174.727 810.625 175.514 810.065 176.141C809.989 176.111 809.857 176.108 809.812 176.07C809.688 175.901 809.627 175.694 809.639 175.485C809.65 175.276 809.734 175.078 809.876 174.924ZM792.931 329.452C793.77 329.719 794.583 330.063 795.359 330.481C794.924 330.757 794.493 331.037 793.975 331.366L791.656 330.228C792.091 329.959 792.647 329.403 792.931 329.452ZM791.054 339.763C790.931 339.594 790.87 339.388 790.881 339.179C790.893 338.97 790.977 338.771 791.119 338.617C791.814 338.155 792.553 337.761 793.324 337.441C792.711 338.341 792.182 339.105 791.607 339.915C791.414 339.904 791.226 339.852 791.054 339.763ZM794.406 338.387C794.353 338.44 794.273 338.481 794.239 338.553C794.391 338.341 794.421 338.364 794.406 338.387ZM792.518 310.733C792.874 311.512 792.742 312.401 792.829 313.237C792.768 314.114 792.942 315.052 792.579 315.839C792.216 316.626 791.315 317.14 790.642 317.776C790.237 317.424 789.867 317.091 789.454 316.762C784.95 313.172 785.025 313.051 790.033 310.252C791.221 309.602 791.951 309.485 792.518 310.733ZM791.073 197.191C792.688 197.248 794.863 197.085 795.779 197.781C796.751 198.519 796.611 200.126 796.762 201.337C796.792 201.601 795.945 201.896 794.856 202.592C793.146 201.049 791.444 199.521 789.814 197.959C789.799 197.944 790.646 197.187 791.085 197.202L791.073 197.191ZM798.249 46.0625C798.681 46.6503 799.029 47.2957 799.281 47.9801C799.33 48.2109 798.494 48.5249 798.059 48.801C797.629 48.2119 797.282 47.5668 797.027 46.8834C796.993 46.6678 797.825 46.3499 798.26 46.0738L798.249 46.0625ZM785.714 246.919C785.248 247.46 784.76 248.023 784.273 248.587C783.883 248.258 783.096 247.827 783.179 247.607C783.52 246.967 783.951 246.378 784.458 245.86L785.714 246.919ZM784.246 150.133C784.59 150.407 784.861 150.762 785.035 151.166C785.209 151.57 785.281 152.01 785.244 152.448C785.184 153.205 784.605 154.358 783.864 154.54C782.298 154.918 780.471 154.778 778.232 154.877C777.067 154.355 774.487 153.749 774.404 153.053C774.143 151.105 782.158 148.802 784.246 150.133ZM774.835 115.94L776.019 117.782C775.497 118.115 775.066 118.387 774.631 118.663C774.199 118.075 773.851 117.43 773.598 116.745C773.549 116.537 774.389 116.227 774.824 115.951L774.835 115.94ZM764.388 119.866C766.582 118.898 766.525 118.667 769.566 120.104C770.977 120.759 772.831 120.849 774.287 121.436C776.257 122.241 776.916 124.859 775.425 125.971C772.535 128.104 769.661 130.427 763.272 128.539C763.193 128.46 761.237 127.624 761.192 126.777C761.067 124.261 760.587 121.549 764.388 119.866ZM750.018 34.961C750.521 34.8134 751.055 34.7265 751.626 34.6016C755.091 35.8877 758.612 37.1473 762.092 38.509C763.73 39.1406 763.579 39.7231 762.122 40.4002C760.666 41.0772 759.565 42.2006 758.083 42.8664C755.673 43.9822 753.457 42.9004 752.114 40.2186C751.531 39.0536 750.975 37.741 749.86 36.8899C748.574 35.8838 748.339 35.4451 750.018 34.961ZM733.084 37.8999C733.878 37.1122 734.883 36.5727 735.978 36.347C737.073 36.1213 738.21 36.2192 739.25 36.629C740.392 37.0829 740.71 38.7548 740.464 38.3577C741.913 43.1879 738.822 44.5912 736.356 46.3538C735.1 47.254 734.34 47.4695 733.811 46.2137C732.975 44.2128 733.277 41.898 730.452 40.4947C731.337 39.6324 732.195 38.7511 733.096 37.8887L733.084 37.8999ZM730.308 78.9094C729.786 79.2422 729.351 79.5184 728.92 79.7907C728.488 79.2047 728.142 78.5603 727.891 77.8768C727.834 77.646 728.678 77.332 729.113 77.0559L730.308 78.9094ZM697.775 450.419C698.471 449.961 699.208 449.569 699.976 449.247C699.186 450.226 698.524 451.017 697.968 451.641C697.889 451.615 697.756 451.611 697.711 451.573C697.587 451.4 697.526 451.189 697.54 450.977C697.554 450.764 697.641 450.563 697.786 450.408L697.775 450.419ZM715.534 39.3676C715.386 39.2806 715.553 38.5923 715.757 38.5166C716.758 38.1539 717.807 37.9409 718.87 37.8849C722.463 37.953 723.11 40.7331 725.372 42.0494C725.523 42.1401 725.247 42.6356 725.171 42.9382C724.127 43.15 723.087 43.5547 722.036 43.532C718.439 43.4752 717.811 40.6762 715.545 39.3561L715.534 39.3676ZM695.354 453.861C693.195 452.746 694.772 452.068 696.035 451.516C696.552 451.356 697.11 451.398 697.597 451.633C697.677 451.713 697.658 451.845 697.658 451.966C696.236 453.525 695.555 453.964 695.354 453.861ZM699.273 451.675C699.043 451.757 698.797 451.786 698.554 451.758C700.589 449.723 701.138 450.098 701.07 450.181C700.572 450.79 699.962 451.297 699.273 451.675ZM720.64 174.091C719.346 173.161 716.967 171.606 717.258 171.164C718.465 169.344 721.177 169.968 724.494 170.245C725.13 170.298 726.556 171.096 727.993 171.708C726.348 172.839 724.778 174.038 722.989 175.026C722.679 175.192 721.291 174.568 720.64 174.091ZM712.171 455.359C711.566 455.344 710.957 455.28 710.352 455.242C709.751 455.166 709.146 455.127 708.54 455.125C706.21 455.253 705.31 454.164 705.041 452.738C704.625 450.68 706.142 449.565 709.054 449.655C710.269 449.697 711.49 449.92 712.686 449.882C715.027 449.81 715.897 450.87 716.184 452.277C716.612 454.323 715.087 455.439 712.182 455.348L712.171 455.359ZM729.661 346.182L727.343 345.044C727.778 344.768 728.318 344.204 728.621 344.272C729.462 344.536 730.275 344.881 731.049 345.301C730.626 345.566 730.195 345.838 729.673 346.171L729.661 346.182ZM751.569 183.135C746.077 182.939 742.76 177.98 736.734 179.171C734.306 176.645 729.294 174.871 731.825 171.833C732.226 168.232 734.877 167.321 738.251 168.977C740.01 169.836 740.778 172.072 743.6 170.006C744.617 169.261 746.807 169.235 748.498 169.17C753.706 168.977 759.599 171.512 763.821 167.465C768.764 167.816 773.765 168.588 778.595 168.289C780.849 168.153 782.377 164.953 785.343 168.229C786.773 169.825 787.813 171.115 787.752 173.112C787.65 176.187 786.345 179.201 788.085 182.424C789.632 185.31 788.936 185.25 787.771 186.286C785.483 188.332 782.381 188.552 779.544 187.704C775.21 186.396 771.809 183.699 766.393 184.009C761.529 184.259 756.517 183.302 751.581 183.124L751.569 183.135ZM778.72 198.734C778.64 198.708 778.508 198.704 778.463 198.666C778.34 198.495 778.279 198.288 778.291 198.078C778.303 197.868 778.386 197.668 778.527 197.512C779.223 197.054 779.96 196.662 780.728 196.34C779.968 197.297 779.272 198.114 778.731 198.723L778.72 198.734ZM778.338 198.745C778.414 198.821 778.394 198.954 778.394 199.075C776.976 200.629 776.295 201.068 776.095 200.966C773.935 199.85 775.512 199.173 776.776 198.621C777.298 198.448 777.867 198.483 778.364 198.719L778.338 198.745ZM781.81 197.285C781.313 197.894 780.703 198.401 780.013 198.779C779.783 198.862 779.538 198.89 779.295 198.863C781.322 196.798 781.886 197.187 781.81 197.263L781.81 197.285ZM771.083 196.824L768.632 197.634L767.38 196.571C768.204 196.261 769.057 196.031 769.926 195.886C770.247 195.844 770.705 196.484 771.094 196.813L771.083 196.824ZM769.184 357.253C766.881 357.098 768.556 355.4 769.804 354.613C770.266 354.318 770.727 354.023 771.185 353.724C768.488 352.268 765.852 350.736 763.038 349.412C762.531 349.163 761.343 349.896 760.435 350.101C758.828 350.46 757.133 351.171 755.605 350.982C753.771 350.759 752.644 349.466 753.268 347.956C753.589 347.181 754.281 345.906 754.89 345.902C758.495 345.861 762.909 347.113 765.549 346.046C769.063 344.612 773.266 344.556 776.447 342.623C779.023 341.061 783.357 341.885 785.646 339.476C786.024 339.098 787.968 339.582 789.19 339.669L791.017 339.794C790.919 340.216 790.858 340.647 790.835 341.08C776.439 361.634 773.912 357.571 769.184 357.253ZM791.145 372.406L788.827 371.267C789.262 370.991 789.806 370.424 790.105 370.496C790.946 370.76 791.759 371.104 792.533 371.525C792.091 371.808 791.656 372.084 791.134 372.417L791.145 372.406ZM788.861 360.642C786.985 361.399 784.401 361.244 782.143 361.49C786.489 352.605 789.311 347.12 791.141 343.739C791.772 345.096 792.805 346.226 794.099 346.976C787.121 348.993 794.114 351.826 793.986 354.246C793.793 357.412 792.015 359.387 788.849 360.654L788.861 360.642ZM807.459 178.362C805.295 177.242 806.873 176.565 808.136 176.013C808.514 175.846 809.21 176.058 809.747 176.111L809.721 176.508C808.318 178.033 807.644 178.472 807.448 178.373L807.459 178.362ZM811.378 176.176C811.144 176.256 810.897 176.284 810.651 176.259C812.69 174.22 813.239 174.594 813.171 174.678C812.672 175.293 812.06 175.805 811.366 176.187L811.378 176.176ZM823.644 56.0558L822.392 54.993C822.861 54.4483 823.349 53.8846 823.833 53.3173C824.238 53.669 825.013 54.0814 824.93 54.3008C824.579 54.9492 824.14 55.5461 823.625 56.0746L823.644 56.0558ZM813.541 256.099C813.111 255.51 812.764 254.865 812.509 254.181C812.459 253.951 813.303 253.637 813.73 253.361C814.163 253.948 814.511 254.593 814.763 255.278C814.797 255.524 813.957 255.842 813.522 256.118L813.541 256.099ZM817.653 187.141C817.343 187.171 816.885 186.532 816.495 186.203C817.324 185.927 818.148 185.654 818.946 185.393L820.198 186.456C819.373 186.765 818.521 186.994 817.653 187.141ZM824.302 170.733C822.827 172.003 818.893 171.746 818.36 170.23C818.201 169.768 820.123 168.966 820.909 168.437C822.483 169.042 823.504 169.397 824.442 169.844C824.601 169.919 824.529 170.536 824.302 170.733ZM835.173 195.326C835.498 194.607 836.83 194.161 837.726 193.605C838.623 193.049 839.508 192.58 840.378 192.043C840.915 192.784 841.804 193.507 841.925 194.278C842.122 195.595 841.819 196.919 841.656 199.199C841.469 200.15 841.222 201.087 840.915 202.006C840.79 202.358 839.712 202.846 839.686 202.827C838.029 201.548 836.054 200.368 834.961 198.859C834.299 197.917 834.681 196.415 835.181 195.334L835.173 195.326ZM836.501 176.115C836.448 175.881 837.288 175.57 837.723 175.294L838.906 177.136C838.384 177.469 837.953 177.741 837.518 178.018C837.091 177.434 836.749 176.794 836.501 176.115ZM841.743 151.801C842.258 151.469 842.693 151.192 843.128 150.916C843.558 151.505 843.905 152.151 844.16 152.834C844.209 153.065 843.37 153.382 842.938 153.655L841.743 151.801ZM847.387 80.2446C848.227 80.5086 849.041 80.8531 849.815 81.2734C849.384 81.5458 848.953 81.8256 848.431 82.1585L846.112 81.0201C846.528 80.725 847.073 80.1576 847.387 80.2446ZM841.361 132.076C841.668 132.049 842.129 132.685 842.519 133.014C841.69 133.29 840.862 133.559 840.064 133.827L838.816 132.76C839.635 132.447 840.482 132.213 841.346 132.061L841.361 132.076ZM838.418 139.043C838.827 137.659 839.882 136.679 842.091 137.133C843.162 137.356 844.493 137.636 845.083 138.226C845.673 138.816 846.006 140.011 845.624 140.651C844.407 142.508 843.066 144.28 841.611 145.957C840.985 146.652 840.323 147.313 839.629 147.939C839.058 147.194 838.12 146.476 837.999 145.704C837.802 144.388 838.105 143.041 838.207 141.714C838.175 140.814 838.241 139.913 838.403 139.028L838.418 139.043ZM836.694 207.339C839.553 205.312 839.833 205.342 841.047 207.85C842.182 210.18 843.279 212.517 844.618 215.332C843.256 215.801 841.845 216.75 840.593 216.602C839.037 216.335 837.579 215.661 836.368 214.647C832.079 211.197 832.177 210.547 836.694 207.339ZM842.931 234.758C842.106 235.066 841.253 235.295 840.385 235.443C840.075 235.473 839.617 234.834 839.228 234.505C840.052 234.194 840.905 233.965 841.773 233.82C842.084 233.82 842.522 234.441 842.916 234.774L842.931 234.758ZM843.453 273.627C843.381 273.971 842.651 274.383 842.14 274.432C841.896 274.392 841.663 274.297 841.459 274.156C841.255 274.015 841.085 273.83 840.96 273.616C839.137 268.721 834.693 263.997 838.229 258.781C838.581 258.262 840.268 258.02 841.316 258.085C842.364 258.149 844.179 258.739 844.24 259.163C844.506 261.61 844.643 264.069 844.648 266.531C844.19 269.296 843.892 271.479 843.445 273.635L843.453 273.627ZM845.367 280.299C844.934 279.711 844.587 279.066 844.334 278.381C844.285 278.151 845.125 277.841 845.556 277.561C845.988 278.148 846.336 278.794 846.589 279.478C846.623 279.724 845.79 280.042 845.352 280.314L845.367 280.299ZM844.724 343.504C844.315 343.156 843.544 342.74 843.627 342.521C843.968 341.88 844.398 341.292 844.905 340.773L846.157 341.836C845.681 342.388 845.193 342.952 844.709 343.519L844.724 343.504ZM931.709 188.661C930.884 188.934 930.056 189.21 929.258 189.471L928.006 188.408C928.831 188.099 929.683 187.87 930.552 187.723C930.862 187.693 931.323 188.329 931.709 188.661ZM928.301 241.658C927.765 242.543 927.182 243.399 926.554 244.222C926.455 244.32 925.634 244.249 925.362 244.075C923.573 242.929 923.759 240.02 925.79 239.691C926.399 239.589 927.556 241.041 928.301 241.658ZM926.69 170.963C926.985 170.827 927.518 170.96 927.942 170.967C929.746 171.894 929.617 174.587 927.7 175.491C927.298 175.625 926.863 175.618 926.467 175.468C924.632 174.58 924.749 171.867 926.69 170.963ZM925.986 209.87C925.517 210.414 925.033 210.974 924.549 211.542C924.14 211.194 923.369 210.785 923.452 210.558C923.797 209.92 924.227 209.332 924.731 208.811L925.986 209.87ZM922.809 128.925C922.272 127.752 921.417 126.58 921.322 125.396C921.273 124.757 922.525 124.102 923.176 123.467L925.162 126.02L922.809 128.925ZM886.342 392.839C885.572 392.493 884.865 392.022 884.247 391.447C884.169 391.317 884.13 391.167 884.133 391.016C880.884 390.089 879.924 390.089 879.156 389.82C878.388 389.552 877.911 388.727 877.31 388.148C878.274 387.835 879.212 387.298 880.211 387.267C881.27 387.32 882.311 387.56 883.286 387.975C883.748 388.161 884.125 388.511 884.345 388.958C884.897 390.267 884.254 390.653 882.56 390.108C883.169 390.407 883.676 390.672 884.118 390.91C884.103 390.793 884.115 390.675 884.155 390.565C884.194 390.454 884.26 390.355 884.345 390.274C884.856 390.1 885.414 390.134 885.9 390.369C886.517 390.868 887.079 391.431 887.579 392.048C886.304 391.628 885.279 391.322 884.383 391.061C886.887 392.514 886.456 392.892 886.342 392.839ZM891.698 193.284C892.539 193.548 893.352 193.892 894.127 194.312L892.738 195.194L890.42 194.055C890.828 193.783 891.373 193.216 891.698 193.284ZM891.747 174.897C892.572 174.586 893.424 174.357 894.293 174.212C894.599 174.186 895.057 174.818 895.45 175.15C894.622 175.427 893.794 175.695 892.996 175.964L891.747 174.897ZM893.571 220.945C893.869 220.782 895.235 221.497 895.889 221.97C896.169 222.174 895.878 222.806 895.851 223.241C895.78 225.847 892.39 226.399 890.488 227.848C890.367 227.969 888.056 226.702 887.023 225.896C884.031 223.555 884.016 223.093 887.568 222.885C890.125 222.726 891.725 221.928 893.54 220.945H893.571ZM910.463 162.944C908.988 164.223 905.05 163.962 904.521 162.441C904.358 161.984 906.283 161.178 907.066 160.652C908.64 161.257 909.665 161.609 910.607 162.059C910.751 162.127 910.679 162.736 910.452 162.933L910.463 162.944ZM903.696 263.335C903.227 263.88 902.739 264.443 902.255 265.01C901.85 264.659 901.075 264.246 901.158 264.027C901.501 263.388 901.931 262.8 902.437 262.279L903.696 263.335ZM904.037 185.386L905.285 186.452C904.816 186.997 904.332 187.557 903.844 188.121C903.454 187.792 902.664 187.364 902.751 187.141C903.088 186.494 903.518 185.899 904.025 185.374L904.037 185.386ZM902.032 231.108C900.553 232.383 896.877 232.088 895.942 230.624C895.872 230.476 895.848 230.311 895.874 230.149C895.9 229.987 895.976 229.838 896.09 229.72C897.565 228.442 901.211 228.744 902.206 230.193C902.146 230.496 902.248 230.9 902.021 231.097L902.032 231.108ZM902.047 212.71C902.525 213.312 902.937 213.962 903.276 214.651C902.244 214.889 901.211 215.127 900.129 215.384C896.933 215.297 896.279 213.735 896.699 211.848C896.861 211.118 897.864 210.517 898.484 209.851C898.885 210.123 899.316 210.373 899.683 210.672C900.513 211.292 901.3 211.969 902.036 212.699L902.047 212.71ZM885.809 262.423C888.801 260.74 890.431 260.888 893.211 263.131C894.429 264.114 896.082 265.139 896.385 266.304C896.672 267.348 895.882 269.077 894.747 269.591C893.506 270.173 891.369 269.739 890.919 269.742C887.81 269.523 886.006 269.443 884.213 269.269C881.989 269.05 880.411 266.262 881.815 265.01C883.053 264.015 884.387 263.144 885.798 262.412L885.809 262.423ZM886.664 301.027C888.423 299.828 889.693 300.161 890.544 301.488C891.331 302.714 894.8 302.99 892.353 305.528C888.725 309.299 889.209 309.564 891.445 313.759C891.793 314.417 892.179 315.068 892.534 315.695C891.929 315.998 891.46 316.437 890.968 316.437C889.765 316.383 888.566 316.266 887.375 316.089L882.62 306.47C881.977 303.792 884.44 302.525 886.652 301.016L886.664 301.027ZM891.906 323.888C891.959 324.115 891.116 324.429 890.688 324.705C890.256 324.118 889.908 323.472 889.656 322.788C889.603 322.561 890.442 322.243 890.874 321.971C891.301 322.556 891.645 323.197 891.895 323.877L891.906 323.888ZM887.818 335.504C890.594 335.754 892.78 337.789 891.464 339.15C888.737 341.984 884.451 344.469 890.722 347.918C889.886 348.376 888.929 349.303 888.222 349.201C886.588 348.928 883.698 348.058 883.747 347.623C883.967 344.93 883.297 343.429 879.035 343.046C876.86 342.854 875.604 339.714 876.939 338.765C879.931 336.597 882.783 334.048 887.806 335.493L887.818 335.504ZM879.628 350.063C879.193 350.339 878.762 350.619 878.244 350.948L875.925 349.81C876.353 349.533 876.898 348.966 877.2 349.034C878.036 349.297 878.845 349.638 879.617 350.052L879.628 350.063ZM875.528 373.65C875.924 373.543 876.344 373.57 876.724 373.726C877.264 374.925 877.688 376.143 878.187 377.459C877.518 378.696 876.924 379.85 876.213 380.947C875.815 381.048 875.395 381.016 875.018 380.856C873.365 379.271 873.675 374.974 875.509 373.631L875.528 373.65ZM888.453 371.37C884.447 371.041 880.945 370.821 882.087 366.721C882.14 366.517 880.536 366.002 879.95 365.749C878.233 366.006 877.662 368.385 875.789 366.884C874.908 366.176 874.87 364.285 875.471 363.298C876.746 361.206 882.163 363.748 882.454 360.711C882.73 357.961 885.389 357.087 887.394 355.597C887.768 355.321 888.396 354.897 888.71 354.984C889.213 355.124 889.905 355.635 889.913 355.975C889.962 358.657 889.648 361.346 889.92 364.016C890.053 365.397 891.819 365.809 893.703 366.286C897.41 367.194 897.372 367.685 894.603 369.319C892.799 370.36 891.331 371.593 888.441 371.358L888.453 371.37ZM900.046 289.211L898.794 288.14C899.62 287.833 900.474 287.605 901.344 287.46C901.646 287.429 902.107 288.065 902.501 288.397C901.661 288.662 900.833 288.931 900.035 289.199L900.046 289.211ZM908.023 148.847C909.937 147.629 911.121 146.597 912.63 145.995C914.022 145.443 915.842 144.963 917.332 145.174C919.079 145.409 919.938 146.616 919.692 148.155C919.356 150.33 919.393 152.547 919.151 154.748C919.117 155.077 918.429 155.41 917.937 155.599C917.542 155.739 917.109 155.73 916.719 155.576C913.765 153.318 910.883 151.071 908.001 148.825L908.023 148.847ZM903.904 376.676C904.599 376.217 905.334 375.823 906.102 375.5C905.758 376.427 905.463 377.236 905.209 377.966C904.749 378.082 904.263 378.033 903.836 377.826C903.704 377.657 903.636 377.446 903.644 377.232C903.653 377.017 903.737 376.812 903.882 376.654L903.904 376.676ZM907.172 376.434C906.837 376.774 906.47 377.081 906.075 377.35C906.941 376.181 907.21 376.366 907.161 376.423L907.172 376.434ZM916.802 98.3172C918.656 98.8543 919.496 99.9362 919.166 101.491C918.837 103.045 917.797 103.821 915.637 103.688C913.784 103.575 911.908 103.272 910.1 103.386C909.393 103.435 908.84 104.396 908.231 104.921C911.087 106.378 910.508 108.931 911.904 110.765C913.3 112.6 917.245 111.968 919.394 114.132C921.02 115.758 921.909 113.727 922.053 112.562C922.208 111.242 922.786 109.559 924.606 110.387C927.178 111.545 924.81 114.82 928.214 116.189C929.515 116.734 928.846 117.252 927.654 118.111C924.901 120.108 921.863 121.632 917.983 120.278C913.72 118.799 910.164 115.993 904.918 116.549C904.6 116.587 903.677 115.815 903.753 115.558C904.593 112.668 902.327 111.794 900.001 110.989C914.537 98.1093 915.77 98.0109 916.791 98.3059L916.802 98.3172ZM889.13 104.967C889.024 102.667 890.673 101.782 893.624 102.183C896.805 102.618 899.483 102.376 901.813 100.538C904.759 98.1886 908.103 96.1159 911.749 97.939C905.784 104.123 901.903 108.133 899.335 110.769C898.32 110.481 897.37 110.001 896.536 109.355C895.938 108.81 896.721 107.55 896.332 106.745C896.056 106.181 894.928 105.742 894.066 105.44C893.839 105.356 892.829 105.92 892.799 106.268C892.461 108.065 892.34 109.896 892.436 111.722C892.58 113.145 892.273 113.451 890.401 113.001C889.243 112.721 887.825 113.005 886.766 112.626C886.168 112.415 885.639 110.856 885.809 110.784C888.812 109.453 889.225 107.301 889.119 104.955L889.13 104.967ZM895.413 114.745C894.528 115.63 894.391 115.69 894.342 115.664C893.57 115.322 892.861 114.851 892.247 114.272C892.126 114.1 892.069 113.891 892.087 113.682C892.104 113.472 892.194 113.275 892.341 113.126C892.851 112.955 893.408 112.99 893.892 113.224C894.451 113.668 894.958 114.174 895.401 114.733L895.413 114.745ZM878.255 133.695C879.212 133.683 879.98 132.394 881.047 132.129C881.599 131.993 882.741 132.704 883.392 133.226C883.683 133.456 883.539 134.13 883.324 134.534C882.919 135.302 882.579 136.255 881.769 136.702C879.632 137.871 878.119 139.595 879.583 141.157C881.21 142.89 882.522 145.42 886.153 145.594C887.227 145.647 889.081 145.39 889.274 144.932C889.958 143.287 890.155 141.509 890.412 139.769C890.87 136.671 891.127 133.547 891.778 130.483C891.857 130.094 893.763 129.92 894.849 129.772C895.42 129.685 896.396 129.67 896.615 129.905C897.141 130.476 897.758 131.72 897.58 131.8C894.588 133.12 894.891 135.404 894.089 137.522C893.139 140.038 898.949 140.915 896.381 142.992C894.667 144.38 893.264 145.549 893.582 147.546C893.601 147.663 893.605 147.803 893.624 147.936C899.067 149.195 900.712 149.32 902.312 149.604C903.764 149.861 905.224 151.079 902.845 152.096C899.747 153.424 900.534 155.777 900.371 157.838C900.243 159.419 899.093 160.145 897.19 160.127C894.671 160.096 892.527 159.54 892.935 157.112C889.909 155.682 888.604 153.954 889.78 152.626C890.957 151.298 893.794 151.018 893.502 148.904L893.378 148.855C893.026 149.025 892.243 148.862 891.664 148.768C888.105 148.197 886.051 148.722 885.684 151.866C885.491 153.572 881.837 154.305 880.056 153.326C878.592 152.52 877.503 150.697 876.141 150.591C872.166 150.285 870.732 149.07 871.322 146.241C871.514 144.886 871.616 143.52 871.628 142.152C877.65 143.839 882.367 145.106 886.138 146.071C871.825 140.435 872.067 139.232 871.863 138.067C871.209 134.296 874.17 133.732 878.244 133.683L878.255 133.695ZM844.58 408.994C844.177 409.127 843.742 409.121 843.343 408.975C841.513 408.082 841.653 405.37 843.57 404.466C843.865 404.33 844.399 404.462 844.822 404.47C846.604 405.397 846.498 408.09 844.569 408.983L844.58 408.994ZM849.739 395.241C848.268 396.515 844.334 396.258 843.801 394.734C843.642 394.28 845.567 393.474 846.347 392.945C847.924 393.554 848.941 393.905 849.883 394.356C850.016 394.435 849.959 395.029 849.732 395.226L849.739 395.241ZM872.812 106.639L874.061 107.705C873.235 108.012 872.383 108.241 871.515 108.39C871.209 108.416 870.747 107.781 870.354 107.448L872.812 106.639ZM868.171 166.61C870.853 164.344 866.76 163.088 867.207 162.672C869.696 160.365 872.767 158.398 875.789 156.435C875.982 156.31 877.332 157.388 878.255 157.6C883.267 158.769 886.422 162.997 892.383 162.604C895.458 162.396 896.298 164.582 897.973 165.812C898.563 166.243 899.048 167.559 898.794 167.699C896.513 168.951 895.053 171.44 891.362 170.721C890.314 170.521 889.44 169.753 888.483 169.242C888.899 168.947 889.319 168.656 889.728 168.361C890.545 167.771 891.358 167.177 892.171 166.591C891.217 166.067 890.238 165.593 889.236 165.169C888.634 165.036 888.017 164.984 887.401 165.013C886.244 166.474 885.211 167.756 884.235 168.936C885.052 170.85 884.334 172.976 884.235 174.988C884.111 177.533 880.449 179.046 877.23 178.165C878.025 176.977 878.743 175.896 879.386 174.882C878.263 176.24 877.393 177.261 876.716 178.029L876.614 178.003L876.602 178.158C874.825 180.162 874.439 180.321 874.31 180.261C872.15 179.145 873.728 178.468 874.991 177.915C875.373 177.745 876.069 177.957 876.602 178.014C876.871 173.532 869.575 175.631 867.789 172.227C866.462 169.711 864.839 169.382 868.141 166.587L868.171 166.61ZM871.89 300.573C871.746 300.029 871.859 299.091 872.101 297.336C872.343 295.58 876.183 291.318 878.032 291.087C875.324 295.512 873.38 298.463 871.882 300.558L871.89 300.573ZM873.433 278.136C874.259 277.827 875.112 277.599 875.982 277.455C876.289 277.421 876.746 278.06 877.139 278.393C876.314 278.701 875.462 278.93 874.594 279.077C874.269 279.1 873.83 278.48 873.421 278.132L873.433 278.136ZM876.288 186.604C875.464 187.111 874.121 188.393 873.531 188.211C871.56 187.602 871.765 184.682 873.686 183.827C873.985 183.687 874.817 183.725 874.889 183.843C875.4 184.735 875.862 185.654 876.273 186.596L876.288 186.604ZM874.015 202.653C875.589 202.887 877.041 203.682 878.539 204.241C876.977 204.593 875.43 205.179 873.837 205.198C872.975 205.213 872.037 204.253 871.129 203.731C872.086 203.334 873.149 202.513 874.008 202.653L874.015 202.653ZM869.805 222.893C870.059 219.243 870.286 215.604 870.622 211.954C870.649 211.632 871.492 211.379 871.973 211.08C872.362 211.152 873.153 211.209 873.176 211.315C873.501 213.047 874.265 214.878 873.864 216.504C872.85 220.627 874.934 224.232 876.844 227.973C878.07 230.371 881.739 232.345 880.079 235.269C878.554 237.951 876.716 240.531 874.942 243.129C874.766 243.275 874.561 243.382 874.341 243.445C874.121 243.507 873.89 243.523 873.663 243.492C873.149 243.295 872.374 242.732 872.461 242.494C873.815 238.756 870.24 235.772 869.367 232.44C868.542 229.361 869.571 226.077 869.79 222.885L869.805 222.893ZM866.655 305.982C866.283 306.132 865.876 306.173 865.482 306.103C864.986 305.388 864.222 304.609 864.268 303.898C864.446 301.148 865.108 300.91 870.089 301.292C870.49 301.322 870.952 301.315 871.322 301.36C868.845 304.685 867.751 305.347 866.651 305.963L866.655 305.982ZM873.648 301.523C873.327 301.466 873.07 301.413 872.843 301.36C879.095 292.082 880.294 292.781 881.376 293.621C882.598 294.563 883.823 295.463 881.595 296.549C880.691 296.984 879.575 297.812 879.564 298.482C879.541 301.659 877.124 302.116 873.645 301.504L873.648 301.523ZM877.835 403.698C874.488 403.521 872.117 403.025 872.355 399.821C872.514 397.711 867.997 396.576 869.151 393.992C869.323 393.582 869.583 393.214 869.911 392.914C870.326 392.63 870.768 392.388 871.231 392.192C873.682 394.28 876.247 396.254 878.509 398.448C880.513 400.393 882.772 401.41 886.093 401.493C887.636 401.523 889.183 402.488 890.734 403.025C889.241 403.483 887.723 403.854 886.187 404.137C881.516 404.761 884.035 406.199 885.703 407.39C886.906 408.245 886.827 408.687 885.272 409.334C884.247 409.746 883.498 410.503 882.533 411.014C880.063 412.326 877.457 412.353 876.315 411.006C874.828 409.255 875.199 407.697 877.374 406.467C877.854 406.191 878.668 405.892 878.649 405.608C878.596 404.905 878.153 403.698 877.832 403.68L877.835 403.698ZM874.374 460.681L872.056 459.543C872.491 459.267 873.032 458.703 873.334 458.771C874.174 459.037 874.987 459.382 875.763 459.8L874.374 460.681ZM877.862 447.057C877.556 447.083 877.094 446.448 876.708 446.115C877.534 445.808 878.386 445.579 879.254 445.43C879.56 445.404 880.022 446.039 880.408 446.372C879.582 446.677 878.728 446.9 877.858 447.038L877.862 447.057ZM881.773 428.016C882.499 426.934 883.804 426.053 884.969 425.16C885.821 424.568 886.704 424.021 887.613 423.522L889.228 426.317C889.103 427.955 889.247 428.893 888.948 429.722C888.468 431.049 887.435 432.082 885.207 431.549C884.152 431.295 882.828 431.015 882.254 430.425C881.679 429.835 881.372 428.621 881.781 428.008L881.773 428.016ZM890.197 450.472C889.856 450.669 887.799 449.844 887.844 449.723C888.763 445.899 884.096 444.326 881.853 441.795C879.916 439.602 882.776 439.692 883.971 439.806C888.506 440.256 888.354 437.888 888.865 435.774C888.956 435.426 889.72 435.191 890.17 434.9C890.59 435.093 891.294 435.229 891.381 435.475C891.816 436.704 891.683 438.13 892.508 439.174C894.213 441.341 896.404 443.312 898.408 445.377C895.692 447.079 893.033 448.853 890.208 450.468L890.197 450.472ZM901.003 385.63C900.924 385.664 899.902 384.983 899.925 384.68C900.082 382.61 900.347 380.549 900.719 378.507C900.776 378.201 901.495 377.853 902.005 377.743C903.768 377.372 904.215 377.849 903.711 379.154C903.401 379.956 903.545 380.871 903.484 381.741C903.912 380.905 904.263 380.205 904.619 379.623C903.484 383.027 903.53 383.738 903.238 384.294C902.947 384.85 901.82 385.266 900.988 385.645L901.003 385.63ZM915.8 433.758C918.039 433.909 919.276 433.905 920.445 434.121C920.929 434.211 921.712 434.994 921.621 435.093C921.111 435.687 920.445 436.564 919.704 436.609C917.907 436.727 916.023 436.303 914.204 436.36C913.137 436.398 912.116 436.935 911.095 437.268C911.806 437.843 912.388 438.66 913.258 438.932C914.351 439.269 915.687 439.091 916.901 439.261C921.724 439.984 921.731 440.006 921.542 443.547C921.447 445.358 921.75 447.303 920.971 448.922C920.611 449.674 917.695 450.465 916.655 450.083C914.649 449.29 912.837 448.076 911.341 446.523C907.539 442.677 906.325 441.909 901.851 440.884C901.037 440.698 900.5 439.768 899.838 439.182C905.047 436.606 908.371 431.118 915.808 433.75L915.8 433.758ZM918.153 411.835C917.722 411.247 917.377 410.601 917.128 409.917C917.071 409.686 917.914 409.372 918.346 409.1L919.529 410.942L918.153 411.835ZM931.864 285.315C930.873 285.633 929.822 285.844 928.169 286.219C927.45 285.583 925.661 284.536 925.88 284.105C926.618 282.671 930.552 282.958 931.834 284.422C932.034 284.653 932.016 285.269 931.861 285.318L931.864 285.315ZM941.407 344.696L942.591 346.538C942.069 346.871 941.638 347.143 941.203 347.419C940.771 346.833 940.425 346.189 940.174 345.505C940.148 345.305 940.969 344.976 941.403 344.699L941.407 344.696ZM947.52 246.647C947.819 246.507 948.348 246.635 948.772 246.643C950.572 247.573 950.444 250.267 948.53 251.167C948.131 251.304 947.697 251.3 947.3 251.155C945.455 250.263 945.606 247.554 947.516 246.65L947.52 246.647ZM943.541 267.443C941.362 268.199 938.037 267.53 937.678 266.005C937.424 264.912 938.487 263.683 938.971 262.525C939.812 262.81 940.626 263.169 941.403 263.596C942.731 264.477 943.919 265.476 945.167 266.429C944.659 266.821 944.113 267.162 943.537 267.446L943.541 267.443ZM943.431 288.462C942.603 288.738 941.774 289.006 940.98 289.271L939.724 288.205C940.55 287.897 941.404 287.669 942.274 287.524C942.58 287.497 943.034 288.133 943.427 288.466L943.431 288.462ZM940.405 276.555C940.454 277.194 939.202 277.848 938.552 278.484L936.566 275.93C937.266 275.064 938.098 274.035 938.93 272.999C939.448 274.206 940.307 275.374 940.401 276.558L940.405 276.555ZM940.193 246.083C940.608 245.988 941.043 246.04 941.423 246.231C943.208 247.38 942.951 250.074 941.037 250.747C940.617 250.698 940.072 250.751 939.796 250.573C938.007 249.427 938.26 246.707 940.197 246.079L940.193 246.083ZM938.737 213.013C939.135 212.912 939.554 212.944 939.932 213.104C941.589 214.7 941.279 218.989 939.433 220.328C939.037 220.435 938.617 220.409 938.238 220.253C937.701 219.057 937.273 217.835 936.774 216.519C937.455 215.271 938.045 214.121 938.741 213.009L938.737 213.013ZM936.256 233.068C936.702 232.311 939.565 231.642 940.704 232.024C945.689 233.703 947.259 236.241 946.729 240.576C946.268 241.31 945.98 242.565 945.303 242.667C943.783 242.902 941.657 243 940.496 242.399C936.513 240.232 934.531 235.98 936.259 233.064L936.256 233.068ZM928.203 374.044C927.794 373.696 927.019 373.284 927.106 373.06C927.451 372.423 927.881 371.835 928.384 371.313L929.633 372.38C929.182 372.913 928.695 373.469 928.21 374.036L928.203 374.044ZM937.572 319.815C938.396 316.32 937.561 313.872 931.845 313.294C930.087 313.116 930.442 312.223 931.887 311.398C933.135 310.687 934.682 309.254 934.44 308.331C933.392 304.257 939.407 302.608 939.312 298.981C939.304 298.686 940.159 298.398 940.613 298.111C941.029 298.323 941.472 298.516 941.865 298.75C945.905 301.133 946.884 303.648 943.87 306.36C941.536 308.46 941.771 309.837 943.753 312.083C946.586 315.302 945.602 318.888 943.824 322.111C943.212 323.223 941.324 324.006 939.8 324.675C939.365 324.868 937.5 324.191 937.447 323.835C937.224 322.497 937.269 321.128 937.579 319.807L937.572 319.815ZM942.349 356.365C941.925 357.303 940.269 357.9 939.649 358.309C935.84 358.032 934.459 356.69 935.182 354.598C935.628 353.252 936.66 352.408 938.96 352.703C941.729 353.096 943.265 354.352 942.338 356.376L942.349 356.365ZM947.913 379.676C947.747 380.183 945.946 380.689 944.936 380.618C944.683 380.599 944.528 380.641 944.305 380.637C946.797 373.091 948.28 373.635 948.481 374.358C948.919 376.082 948.462 377.97 947.902 379.687L947.913 379.676Z" fill="#0024B6" fill-opacity="0.04"/>
</svg>
