<svg width="24" height="24" viewBox="0 0 24 24" fill="none" xmlns="http://www.w3.org/2000/svg">
<path d="M11.6479 0.333008C5.36455 0.333008 0.276367 5.55967 0.276367 11.9997C0.276367 18.4397 5.36455 23.6663 11.6479 23.6663C17.9427 23.6663 23.0423 18.4397 23.0423 11.9997C23.0423 5.55967 17.9427 0.333008 11.6479 0.333008ZM19.5363 7.33301H16.1784C15.8141 5.87467 15.2905 4.47467 14.6075 3.17967C16.702 3.91467 18.4436 5.40801 19.5363 7.33301ZM11.6593 2.71301C12.6041 4.11301 13.344 5.66467 13.8335 7.33301H9.48518C9.97464 5.66467 10.7145 4.11301 11.6593 2.71301ZM2.84891 14.333C2.66679 13.5863 2.55296 12.8047 2.55296 11.9997C2.55296 11.1947 2.66679 10.413 2.84891 9.66634H6.69635C6.60529 10.4363 6.53699 11.2063 6.53699 11.9997C6.53699 12.793 6.60529 13.563 6.69635 14.333H2.84891ZM3.78232 16.6663H7.14029C7.50454 18.1247 8.02816 19.5247 8.71113 20.8197C6.61667 20.0847 4.87508 18.603 3.78232 16.6663ZM7.14029 7.33301H3.78232C4.87508 5.39634 6.61667 3.91467 8.71113 3.17967C8.02816 4.47467 7.50454 5.87467 7.14029 7.33301ZM11.6593 21.2863C10.7145 19.8863 9.97464 18.3347 9.48518 16.6663H13.8335C13.344 18.3347 12.6041 19.8863 11.6593 21.2863ZM14.3229 14.333H8.99571C8.89326 13.563 8.81358 12.793 8.81358 11.9997C8.81358 11.2063 8.89326 10.4247 8.99571 9.66634H14.3229C14.4254 10.4247 14.5051 11.2063 14.5051 11.9997C14.5051 12.793 14.4254 13.563 14.3229 14.333ZM14.6075 20.8197C15.2905 19.5247 15.8141 18.1247 16.1784 16.6663H19.5363C18.4436 18.5913 16.702 20.0847 14.6075 20.8197ZM16.6223 14.333C16.7134 13.563 16.7816 12.793 16.7816 11.9997C16.7816 11.2063 16.7134 10.4363 16.6223 9.66634H20.4697C20.6518 10.413 20.7657 11.1947 20.7657 11.9997C20.7657 12.8047 20.6518 13.5863 20.4697 14.333H16.6223Z" fill="#212934"/>
</svg>
