<svg width="22" height="22" viewBox="0 0 22 22" fill="none" xmlns="http://www.w3.org/2000/svg">
<path d="M21.0547 21.0548L21.0548 21.0547C21.3151 20.7943 21.3151 20.3724 21.0547 20.112C21.0547 20.112 21.0547 20.112 21.0547 20.112L15.1347 14.1919C16.3452 12.7683 17.0834 10.9294 17.0834 8.91664C17.0833 4.41337 13.42 0.75 8.91668 0.75C4.41338 0.75 0.75 4.41337 0.75 8.91668C0.75 13.42 4.41338 17.0834 8.91668 17.0834C10.9294 17.0834 12.7683 16.3452 14.192 15.1347L20.112 21.0547C20.2421 21.1848 20.4131 21.25 20.5834 21.25C20.7536 21.25 20.9246 21.1848 21.0547 21.0548ZM8.91668 15.75C5.14931 15.75 2.08336 12.6844 2.08336 8.91668C2.08336 5.14894 5.14931 2.08332 8.91668 2.08332C12.684 2.08332 15.75 5.1489 15.75 8.91668C15.75 12.6845 12.6841 15.75 8.91668 15.75Z" fill="white" stroke="white" stroke-width="0.5"/>
</svg>
