<svg width="27" height="27" viewBox="0 0 27 27" fill="none" xmlns="http://www.w3.org/2000/svg">
<path d="M6.1 20.5667L15.7667 15.8L20.5333 6.13333L10.8667 10.9L6.1 20.5667ZM13.3333 14.6667C12.9556 14.6667 12.6389 14.5389 12.3833 14.2833C12.1278 14.0278 12 13.7111 12 13.3333C12 12.9556 12.1278 12.6389 12.3833 12.3833C12.6389 12.1278 12.9556 12 13.3333 12C13.7111 12 14.0278 12.1278 14.2833 12.3833C14.5389 12.6389 14.6667 12.9556 14.6667 13.3333C14.6667 13.7111 14.5389 14.0278 14.2833 14.2833C14.0278 14.5389 13.7111 14.6667 13.3333 14.6667ZM13.3333 26.6667C11.5111 26.6667 9.78889 26.3167 8.16667 25.6167C6.54444 24.9167 5.12778 23.9611 3.91667 22.75C2.70556 21.5389 1.75 20.1222 1.05 18.5C0.35 16.8778 0 15.1556 0 13.3333C0 11.4889 0.35 9.75556 1.05 8.13333C1.75 6.51111 2.70556 5.1 3.91667 3.9C5.12778 2.7 6.54444 1.75 8.16667 1.05C9.78889 0.35 11.5111 0 13.3333 0C15.1778 0 16.9111 0.35 18.5333 1.05C20.1556 1.75 21.5667 2.7 22.7667 3.9C23.9667 5.1 24.9167 6.51111 25.6167 8.13333C26.3167 9.75556 26.6667 11.4889 26.6667 13.3333C26.6667 15.1556 26.3167 16.8778 25.6167 18.5C24.9167 20.1222 23.9667 21.5389 22.7667 22.75C21.5667 23.9611 20.1556 24.9167 18.5333 25.6167C16.9111 26.3167 15.1778 26.6667 13.3333 26.6667ZM13.3333 24.6667C16.4889 24.6667 19.1667 23.5611 21.3667 21.35C23.5667 19.1389 24.6667 16.4667 24.6667 13.3333C24.6667 10.1778 23.5667 7.5 21.3667 5.3C19.1667 3.1 16.4889 2 13.3333 2C10.2 2 7.52778 3.1 5.31667 5.3C3.10556 7.5 2 10.1778 2 13.3333C2 16.4667 3.10556 19.1389 5.31667 21.35C7.52778 23.5611 10.2 24.6667 13.3333 24.6667Z" fill="#F24608"/>
</svg>
